<svg width="28" height="28" viewBox="0 0 28 28" fill="none" xmlns="http://www.w3.org/2000/svg">
<path fill-rule="evenodd" clip-rule="evenodd" d="M15.1633 1.03426C14.431 0.692357 13.569 0.692357 12.8367 1.03426L0.718976 6.6916C-0.239658 7.13915 -0.239659 8.41651 0.718976 8.86407L5.0561 10.8889L0.718976 12.9138C-0.239658 13.3613 -0.239659 14.6387 0.718976 15.0862L12.8367 20.7436C13.569 21.0855 14.431 21.0855 15.1633 20.7436L27.281 15.0862C28.2397 14.6387 28.2397 13.3613 27.281 12.9138L22.9439 10.8889L27.281 8.86407C28.2397 8.41651 28.2397 7.13915 27.281 6.6916L15.1633 1.03426Z" fill="white"/>
<path d="M12.8367 13.4786C13.569 13.1367 14.431 13.1367 15.1633 13.4786L27.281 19.1359C28.2397 19.5835 28.2397 20.8608 27.281 21.3084L15.1633 26.9657C14.431 27.3076 13.569 27.3076 12.8367 26.9657L0.718976 21.3084C-0.239659 20.8608 -0.239658 19.5835 0.718976 19.1359L12.8367 13.4786Z" fill="#612FFF"/>
<g style="mix-blend-mode:multiply">
<path d="M12.8367 7.25643C13.569 6.91452 14.431 6.91453 15.1633 7.25643L27.281 12.9138C28.2397 13.3613 28.2397 14.6387 27.281 15.0862L15.1633 20.7436C14.431 21.0855 13.569 21.0855 12.8367 20.7436L0.718976 15.0862C-0.239659 14.6387 -0.239658 13.3613 0.718976 12.9138L12.8367 7.25643Z" fill="url(#paint0_linear_8388_59273)"/>
</g>
<g style="mix-blend-mode:multiply">
<path d="M12.8367 1.03426C13.569 0.692357 14.431 0.692357 15.1633 1.03426L27.281 6.6916C28.2397 7.13915 28.2397 8.41651 27.281 8.86407L15.1633 14.5214C14.431 14.8633 13.569 14.8633 12.8367 14.5214L0.718976 8.86407C-0.239659 8.41651 -0.239658 7.13915 0.718976 6.69159L12.8367 1.03426Z" fill="url(#paint1_linear_8388_59273)"/>
</g>
<defs>
<linearGradient id="paint0_linear_8388_59273" x1="3.83469" y1="8.925" x2="13.5045" y2="28.2524" gradientUnits="userSpaceOnUse">
<stop stop-color="#612FFF"/>
<stop offset="1" stop-color="#D200A3"/>
</linearGradient>
<linearGradient id="paint1_linear_8388_59273" x1="3.83469" y1="2.70283" x2="13.5045" y2="22.0302" gradientUnits="userSpaceOnUse">
<stop stop-color="#612FFF"/>
<stop offset="1" stop-color="#D200A3"/>
</linearGradient>
</defs>
</svg>
