<svg width="28" height="28" viewBox="0 0 28 28" fill="none" xmlns="http://www.w3.org/2000/svg">
<rect y="2" width="18.688" height="24.1386" rx="1.00676" fill="url(#paint0_linear_8388_59374)"/>
<rect x="2.83203" y="20.6877" width="7.00799" height="2.336" rx="1.168" fill="white"/>
<rect x="2.83203" y="15.5911" width="9.06083" height="2.26521" rx="1.1326" fill="white"/>
<rect x="2.83203" y="9.92798" width="12.4586" height="2.336" rx="1.168" fill="white"/>
<rect x="2.83203" y="5.11475" width="12.4586" height="2.336" rx="1.168" fill="white"/>
<path fill-rule="evenodd" clip-rule="evenodd" d="M13.3887 17.3072L21.9381 6.27571L24.0742 3.5285C24.2399 3.31491 24.4836 3.17574 24.7517 3.14152C25.0199 3.1073 25.2906 3.18081 25.5047 3.34593L27.6025 4.96551C27.7087 5.04746 27.7977 5.14953 27.8645 5.26589C27.9312 5.38225 27.9744 5.51062 27.9915 5.64366C28.0086 5.77671 27.9993 5.91182 27.9642 6.04128C27.929 6.17074 27.8687 6.292 27.7867 6.39815L25.0586 9.92755L24.9657 10.0434L20.9406 15.24C20.9061 15.2757 20.875 15.3145 20.8477 15.3558L17.1007 20.1823C16.6747 20.7329 16.2012 21.245 15.6855 21.7128L12.2518 19.0563C12.5801 18.4418 12.9604 17.8566 13.3887 17.3072ZM15.6827 21.7107C15.3181 21.9775 14.9393 22.2158 14.5605 22.4404L11.8964 23.3975C11.8261 23.4223 11.7505 23.4283 11.6772 23.4148C11.6038 23.4014 11.5353 23.3691 11.4783 23.3211C11.4213 23.273 11.3779 23.2109 11.3522 23.1409C11.3266 23.0709 11.3197 22.9955 11.3322 22.922L11.7695 20.2803C11.8589 19.9445 11.9966 19.6353 12.1414 19.3102C12.1781 19.2278 12.2152 19.1443 12.2522 19.0592L15.6827 21.7107Z" fill="#612FFF"/>
<defs>
<linearGradient id="paint0_linear_8388_59374" x1="0" y1="2" x2="23.3691" y2="20.0922" gradientUnits="userSpaceOnUse">
<stop stop-color="#FF4F42"/>
<stop offset="1" stop-color="#FF8E3C"/>
</linearGradient>
</defs>
</svg>
