<svg width="29" height="23" viewBox="0 0 29 23" fill="none" xmlns="http://www.w3.org/2000/svg">
<path d="M2.0123 0C0.912554 0 0 0.852828 0 1.93008V12.0294C0 13.0842 0.912554 13.9595 2.0123 13.9595H19.5614C20.6611 13.9595 21.5737 13.1066 21.5737 12.0294V1.93008C21.5737 0.875271 20.6845 0 19.5614 0H2.0123Z" fill="#612FFF"/>
<path d="M8.82675 6.81421C7.72701 6.81421 6.81445 7.66704 6.81445 8.74429V18.8436C6.81445 19.8984 7.72701 20.7737 8.82675 20.7737H26.3759C27.4756 20.7737 28.3882 19.9208 28.3882 18.8436V8.74429C28.3882 7.68948 27.499 6.81421 26.3759 6.81421H8.82675Z" fill="url(#paint0_linear_8388_59795)"/>
<path fill-rule="evenodd" clip-rule="evenodd" d="M26.2831 18.4959C26.2831 19.0336 25.8472 19.4694 25.3096 19.4694H20.4422C19.9046 19.4694 19.4688 19.0336 19.4688 18.4959V18.4959C19.4688 17.9583 19.9046 17.5225 20.4422 17.5225H25.3096C25.8472 17.5225 26.2831 17.9583 26.2831 18.4959V18.4959Z" fill="white"/>
<path fill-rule="evenodd" clip-rule="evenodd" d="M12.6556 18.4959C12.6556 19.0336 12.2198 19.4694 11.6821 19.4694H9.73519C9.19756 19.4694 8.76172 19.0336 8.76172 18.4959V18.4959C8.76172 17.9583 9.19756 17.5225 9.73519 17.5225H11.6821C12.2198 17.5225 12.6556 17.9583 12.6556 18.4959V18.4959Z" fill="white"/>
<path fill-rule="evenodd" clip-rule="evenodd" d="M17.5228 18.4959C17.5228 19.0336 17.087 19.4694 16.5493 19.4694H14.6024C14.0647 19.4694 13.6289 19.0336 13.6289 18.4959V18.4959C13.6289 17.9583 14.0647 17.5225 14.6024 17.5225H16.5493C17.087 17.5225 17.5228 17.9583 17.5228 18.4959V18.4959Z" fill="white"/>
<ellipse cx="24.9043" cy="10.3475" rx="1.54098" ry="1.5863" fill="white"/>
<defs>
<linearGradient id="paint0_linear_8388_59795" x1="6.81445" y1="6.81421" x2="19.5482" y2="26.4936" gradientUnits="userSpaceOnUse">
<stop stop-color="#FF4F42"/>
<stop offset="1" stop-color="#FF8E3C"/>
</linearGradient>
</defs>
</svg>
