<svg width="28" height="28" viewBox="0 0 28 28" fill="none" xmlns="http://www.w3.org/2000/svg">
<path d="M3.27204 21.7658L5.41085 19.6936C5.55205 19.5562 5.63298 19.3684 5.63589 19.1715C5.63879 18.9745 5.56343 18.7844 5.42635 18.6428C5.28895 18.5016 5.10115 18.4207 4.90415 18.4178C4.70715 18.4149 4.51705 18.4903 4.37554 18.6273L2.24138 20.6995C2.17128 20.7674 2.11527 20.8485 2.07655 20.9381C2.03782 21.0277 2.01715 21.1241 2.01571 21.2217C2.01427 21.3193 2.03209 21.4162 2.06815 21.5069C2.10422 21.5976 2.15782 21.6803 2.22589 21.7503C2.3629 21.8905 2.54978 21.9708 2.74577 21.9737C2.94175 21.9766 3.13094 21.9019 3.27204 21.7658Z" fill="#612FFF"/>
<path d="M7.23283 20.5092C7.1649 20.4391 7.08381 20.3831 6.99421 20.3444C6.90461 20.3056 6.80825 20.285 6.71065 20.2835C6.61304 20.2821 6.51611 20.2999 6.42541 20.336C6.3347 20.372 6.252 20.4256 6.18203 20.4937L2.44842 24.1188C2.37832 24.1868 2.3223 24.2678 2.28358 24.3575C2.24485 24.4471 2.22418 24.5434 2.22274 24.641C2.2213 24.7386 2.23912 24.8355 2.27519 24.9263C2.31125 25.017 2.36485 25.0997 2.43292 25.1696C2.50085 25.2397 2.58193 25.2958 2.67154 25.3345C2.76114 25.3732 2.8575 25.3939 2.95511 25.3953C3.05271 25.3967 3.14964 25.3789 3.24035 25.3429C3.33105 25.3068 3.41376 25.2532 3.48372 25.1851L7.21733 21.56C7.28744 21.4921 7.34345 21.411 7.38218 21.3214C7.4209 21.2318 7.44158 21.1354 7.44302 21.0378C7.44446 20.9402 7.42663 20.8433 7.39056 20.7526C7.3545 20.6619 7.3009 20.5792 7.23283 20.5092Z" fill="#612FFF"/>
<path d="M7.99664 22.3688L5.86248 24.441C5.79238 24.5089 5.73636 24.59 5.69764 24.6796C5.65891 24.7692 5.63824 24.8655 5.6368 24.9631C5.63536 25.0608 5.65318 25.1577 5.68925 25.2484C5.72531 25.3391 5.77892 25.4218 5.84698 25.4918C5.91491 25.5619 5.996 25.6179 6.0856 25.6566C6.1752 25.6953 6.27157 25.716 6.36917 25.7174C6.46677 25.7189 6.5637 25.7011 6.65441 25.665C6.74512 25.6289 6.82782 25.5753 6.89779 25.5073L9.03194 23.4367C9.17324 23.299 9.25421 23.1109 9.25712 22.9137C9.26002 22.7164 9.18462 22.5261 9.04744 22.3843C8.91004 22.2431 8.72224 22.1622 8.52524 22.1593C8.32824 22.1564 8.13814 22.2317 7.99664 22.3688V22.3688Z" fill="#612FFF"/>
<path d="M27.3682 1.10644C27.3308 0.914831 27.2371 0.738734 27.099 0.600686C26.961 0.462639 26.7849 0.368917 26.5933 0.331514C20.0498 -0.908373 13.1095 1.37302 8.03682 6.44881C5.28654 9.1777 3.30338 12.5827 2.28684 16.3214C2.24269 16.4872 2.24293 16.6617 2.28755 16.8274C2.33216 16.993 2.41958 17.1441 2.54102 17.2653L10.4376 25.1696C10.5285 25.2606 10.6365 25.3327 10.7554 25.3819C10.8743 25.4311 11.0017 25.4564 11.1303 25.4563C11.2156 25.4561 11.3005 25.4452 11.383 25.4237C15.1204 24.4065 18.5243 22.4234 21.2525 19.6738C26.3329 14.5871 28.6127 7.6453 27.3682 1.10644Z" fill="url(#paint0_linear_8388_59371)"/>
<path d="M23.5218 7.24965C23.5218 8.78954 22.2734 10.0379 20.7335 10.0379C19.1936 10.0379 17.9453 8.78954 17.9453 7.24965C17.9453 5.70975 19.1936 4.46143 20.7335 4.46143C22.2734 4.46143 23.5218 5.70975 23.5218 7.24965Z" fill="white"/>
<path d="M4.8979 14.7234C6.03498 12.0622 7.54866 9.57818 9.39249 7.34762C8.31002 7.0516 7.16846 7.04752 6.0839 7.33581C4.99934 7.6241 4.01047 8.19448 3.21785 8.98892L1.35802 10.8488C1.22655 10.98 1.12678 11.1395 1.06635 11.3152C1.00591 11.4909 0.986403 11.678 1.0093 11.8624C1.03168 12.0468 1.09597 12.2237 1.19724 12.3796C1.29852 12.5354 1.43409 12.6659 1.5936 12.7613L4.8979 14.7234Z" fill="#612FFF"/>
<path d="M12.623 23.3299C15.1962 22.0069 17.5654 20.3204 19.6579 18.3223C20.0316 19.3795 20.1189 20.5168 19.911 21.6187C19.703 22.7206 19.2071 23.7478 18.4738 24.5961L16.7565 26.5768C16.6351 26.7174 16.4832 26.8285 16.3124 26.9015C16.1416 26.9746 15.9564 27.0077 15.7708 26.9984C15.5851 26.9889 15.404 26.9373 15.2412 26.8473C15.0785 26.7573 14.9384 26.6314 14.8316 26.4792L12.623 23.3299Z" fill="#612FFF"/>
<defs>
<linearGradient id="paint0_linear_8388_59371" x1="2.25391" y1="0" x2="27.7102" y2="25.448" gradientUnits="userSpaceOnUse">
<stop stop-color="#FF4F42"/>
<stop offset="1" stop-color="#FF8E3C"/>
</linearGradient>
</defs>
</svg>
