<svg width="30" height="28" viewBox="0 0 30 28" fill="none" xmlns="http://www.w3.org/2000/svg">
<path fill-rule="evenodd" clip-rule="evenodd" d="M17.24 5.07722L17.1544 25.1431C17.1714 25.2304 17.1798 25.3191 17.1795 25.408C17.1839 25.5767 17.1544 25.7447 17.0928 25.9018C17.0311 26.0589 16.9385 26.2021 16.8205 26.3227C16.7025 26.4434 16.5615 26.5392 16.4057 26.6044C16.25 26.6696 16.0828 26.7028 15.914 26.7022C15.7453 26.7015 15.5783 26.667 15.4231 26.6007C15.2679 26.5343 15.1276 26.4375 15.0105 26.3159C14.8934 26.1944 14.8019 26.0505 14.7414 25.8929C14.6809 25.7354 14.6527 25.5672 14.6584 25.3985C14.662 25.5669 14.6318 25.7343 14.5697 25.8908C14.5076 26.0473 14.4147 26.1898 14.2966 26.3099C14.1786 26.43 14.0376 26.5252 13.8822 26.5899C13.7267 26.6546 13.5598 26.6875 13.3914 26.6867C13.223 26.6859 13.0565 26.6514 12.9017 26.5852C12.7468 26.5189 12.6068 26.4224 12.4899 26.3012C12.373 26.18 12.2815 26.0366 12.2209 25.8795C12.1603 25.7224 12.1317 25.5547 12.1369 25.3864C12.1364 25.552 12.1032 25.7159 12.0392 25.8687C11.9753 26.0215 11.8819 26.1603 11.7644 26.277C11.646 26.3918 11.5061 26.4821 11.3526 26.5425C11.1992 26.6029 11.0353 26.6323 10.8704 26.629C10.7042 26.6297 10.5394 26.5975 10.3857 26.5342C10.232 26.4708 10.0924 26.3777 9.97491 26.2601C9.85741 26.1426 9.76436 26.0029 9.70114 25.8491C9.63793 25.6954 9.60579 25.5307 9.60659 25.3644C9.6102 25.5328 9.58006 25.7002 9.51794 25.8567C9.45581 26.0132 9.36297 26.1557 9.24489 26.2758C9.1268 26.3959 8.98587 26.4911 8.8304 26.5558C8.67493 26.6205 8.50807 26.6534 8.33967 26.6526C8.17127 26.6518 8.00474 26.6173 7.84989 26.5511C7.69505 26.4849 7.55504 26.3883 7.43812 26.2671C7.32119 26.1459 7.22973 26.0025 7.16911 25.8454C7.1085 25.6883 7.07996 25.5206 7.08519 25.3523C7.08287 25.6866 6.94903 26.0065 6.71263 26.2429C6.59427 26.3577 6.45432 26.448 6.30087 26.5084C6.14741 26.5688 5.98351 26.5982 5.81862 26.5949C5.653 26.5946 5.48908 26.5615 5.33625 26.4977C5.18343 26.4339 5.0447 26.3405 4.92803 26.223C4.81136 26.1054 4.71904 25.966 4.65636 25.8127C4.59369 25.6594 4.56188 25.4952 4.56278 25.3296C4.56149 25.6636 4.42759 25.9834 4.19052 26.2186C3.95345 26.4538 3.63264 26.5853 3.29867 26.584C2.96469 26.5827 2.64491 26.4488 2.40967 26.2117C2.17442 25.9747 2.04299 25.6538 2.04428 25.3199L2.12858 4.73293C2.13879 4.40434 2.2769 4.09273 2.51349 3.86447C2.75008 3.63622 3.06644 3.50937 3.39518 3.51095C3.72393 3.51253 4.03906 3.64242 4.27344 3.87294C4.50783 4.10345 4.64293 4.41638 4.64998 4.74505C4.64556 4.57632 4.67506 4.40841 4.73672 4.25128C4.79839 4.09415 4.89097 3.951 5.00898 3.83031C5.12699 3.70963 5.26803 3.61386 5.42373 3.54868C5.57944 3.4835 5.74664 3.45025 5.91544 3.45088C6.08423 3.45152 6.25118 3.48603 6.40639 3.55237C6.5616 3.61872 6.70192 3.71555 6.81902 3.83712C6.93612 3.95869 7.02762 4.10253 7.0881 4.26012C7.14859 4.4177 7.17682 4.58583 7.17113 4.75453C7.18134 4.42594 7.31945 4.11433 7.55604 3.88607C7.79263 3.65782 8.109 3.53097 8.43774 3.53255C8.76648 3.53413 9.08161 3.66402 9.316 3.89454C9.55038 4.12505 9.68549 4.43798 9.69254 4.76665C9.68812 4.59791 9.71761 4.43001 9.77928 4.27288C9.84095 4.11575 9.93353 3.9726 10.0515 3.85191C10.1695 3.73123 10.3106 3.63546 10.4663 3.57028C10.622 3.5051 10.7892 3.47185 10.958 3.47248C11.1268 3.47311 11.2937 3.50763 11.4489 3.57397C11.6042 3.64032 11.7445 3.73714 11.8616 3.85872C11.9787 3.98029 12.0702 4.12413 12.1307 4.28172C12.1911 4.4393 12.2194 4.60743 12.2137 4.77613C12.2101 4.60776 12.2402 4.44038 12.3023 4.28386C12.3645 4.12733 12.4573 3.98483 12.5754 3.86477C12.6935 3.74471 12.8344 3.64951 12.9899 3.58479C13.1454 3.52007 13.3122 3.48715 13.4806 3.48796C13.649 3.48877 13.8155 3.52329 13.9704 3.5895C14.1252 3.65571 14.2652 3.75226 14.3822 3.87346C14.4991 3.99465 14.5906 4.13804 14.6512 4.29515C14.7118 4.45227 14.7403 4.61993 14.7351 4.78825C14.7363 4.61216 14.7744 4.43828 14.847 4.27786C14.9196 4.11837 15.0244 3.97559 15.1547 3.85849C15.2859 3.74085 15.4406 3.6524 15.6085 3.59898C15.7793 3.54384 15.9601 3.52669 16.1383 3.54874C16.3131 3.56741 16.4822 3.62238 16.6346 3.71013C16.789 3.79655 16.9234 3.91462 17.029 4.0566C17.1346 4.19857 17.2089 4.36126 17.2473 4.53399C17.2846 4.70545 17.2859 4.88277 17.2512 5.05477L17.24 5.07722Z" fill="#612FFF"/>
<path fill-rule="evenodd" clip-rule="evenodd" d="M27.1912 2.86604L27.1056 22.9319C27.1225 23.0192 27.1309 23.1079 27.1307 23.1968C27.1351 23.3656 27.1056 23.5335 27.0439 23.6906C26.9823 23.8477 26.8897 23.9909 26.7717 24.1116C26.6537 24.2323 26.5126 24.328 26.3569 24.3932C26.2012 24.4584 26.034 24.4916 25.8652 24.491C25.6964 24.4904 25.5295 24.4559 25.3743 24.3895C25.2191 24.3232 25.0787 24.2263 24.9616 24.1048C24.8445 23.9832 24.753 23.8393 24.6926 23.6818C24.6321 23.5242 24.6038 23.356 24.6095 23.1874C24.6131 23.3557 24.583 23.5231 24.5209 23.6796C24.4587 23.8361 24.3659 23.9786 24.2478 24.0987C24.1297 24.2188 23.9888 24.314 23.8333 24.3787C23.6779 24.4434 23.511 24.4763 23.3426 24.4755C23.1742 24.4747 23.0077 24.4402 22.8528 24.374C22.698 24.3078 22.558 24.2112 22.441 24.09C22.3241 23.9688 22.2327 23.8254 22.172 23.6683C22.1114 23.5112 22.0829 23.3435 22.0881 23.1752C22.0875 23.3409 22.0543 23.5048 21.9904 23.6576C21.9265 23.8104 21.8331 23.9491 21.7156 24.0658C21.5972 24.1806 21.4572 24.2709 21.3038 24.3313C21.1503 24.3917 20.9864 24.4211 20.8216 24.4178C20.6553 24.4185 20.4906 24.3863 20.3369 24.323C20.1832 24.2597 20.0436 24.1665 19.9261 24.049C19.8086 23.9314 19.7155 23.7917 19.6523 23.638C19.5891 23.4842 19.557 23.3195 19.5578 23.1533C19.5614 23.3216 19.5312 23.489 19.4691 23.6455C19.407 23.8021 19.3141 23.9446 19.1961 24.0646C19.078 24.1847 18.937 24.2799 18.7816 24.3446C18.6261 24.4093 18.4592 24.4422 18.2908 24.4414C18.1224 24.4406 17.9559 24.4061 17.8011 24.3399C17.6462 24.2737 17.5062 24.1771 17.3893 24.0559C17.2724 23.9347 17.1809 23.7914 17.1203 23.6342C17.0597 23.4771 17.0311 23.3095 17.0364 23.1411C17.034 23.4754 16.9002 23.7953 16.6638 24.0317C16.5454 24.1465 16.4055 24.2368 16.252 24.2972C16.0986 24.3576 15.9347 24.387 15.7698 24.3837C15.6042 24.3834 15.4403 24.3504 15.2874 24.2865C15.1346 24.2227 14.9959 24.1293 14.8792 24.0118C14.7625 23.8942 14.6702 23.7548 14.6075 23.6015C14.5449 23.4482 14.5131 23.284 14.514 23.1184C14.5127 23.4524 14.3788 23.7722 14.1417 24.0074C13.9046 24.2427 13.5838 24.3741 13.2498 24.3728C12.9159 24.3715 12.5961 24.2376 12.3608 24.0005C12.1256 23.7635 11.9942 23.4427 11.9955 23.1087L12.0797 2.52175C12.09 2.19316 12.2281 1.88154 12.4647 1.65329C12.7012 1.42504 13.0176 1.29819 13.3464 1.29977C13.6751 1.30135 13.9902 1.43124 14.2246 1.66175C14.459 1.89227 14.5941 2.2052 14.6012 2.53387C14.5967 2.36513 14.6262 2.19723 14.6879 2.0401C14.7496 1.88297 14.8421 1.73982 14.9602 1.61913C15.0782 1.49844 15.2192 1.40267 15.3749 1.3375C15.5306 1.27232 15.6978 1.23907 15.8666 1.2397C16.0354 1.24033 16.2024 1.27485 16.3576 1.34119C16.5128 1.40754 16.6531 1.50436 16.7702 1.62594C16.8873 1.74751 16.9788 1.89135 17.0393 2.04894C17.0998 2.20652 17.128 2.37465 17.1223 2.54335C17.1325 2.21476 17.2706 1.90314 17.5072 1.67489C17.7438 1.44664 18.0602 1.31979 18.3889 1.32137C18.7177 1.32295 19.0328 1.45284 19.2672 1.68335C19.5016 1.91387 19.6367 2.2268 19.6437 2.55547C19.6393 2.38673 19.6688 2.21883 19.7305 2.0617C19.7921 1.90457 19.8847 1.76142 20.0027 1.64073C20.1207 1.52004 20.2618 1.42427 20.4175 1.3591C20.5732 1.29392 20.7404 1.26066 20.9092 1.2613C21.078 1.26193 21.2449 1.29645 21.4001 1.36279C21.5553 1.42914 21.6956 1.52596 21.8127 1.64753C21.9298 1.76911 22.0213 1.91295 22.0818 2.07053C22.1423 2.22812 22.1705 2.39625 22.1649 2.56495C22.1612 2.39658 22.1914 2.2292 22.2535 2.07268C22.3156 1.91615 22.4085 1.77365 22.5266 1.65359C22.6447 1.53352 22.7856 1.43833 22.9411 1.37361C23.0965 1.30889 23.2634 1.27597 23.4318 1.27677C23.6002 1.27758 23.7667 1.31211 23.9216 1.37832C24.0764 1.44453 24.2164 1.54108 24.3333 1.66228C24.4503 1.78347 24.5417 1.92686 24.6023 2.08397C24.663 2.24109 24.6915 2.40875 24.6863 2.57707C24.6875 2.40098 24.7256 2.2271 24.7982 2.06668C24.8708 1.90719 24.9755 1.76441 25.1059 1.64731C25.2371 1.52967 25.3918 1.44121 25.5597 1.38779C25.7305 1.33265 25.9113 1.31551 26.0894 1.33756C26.2643 1.35623 26.4334 1.4112 26.5858 1.49895C26.7402 1.58537 26.8746 1.70344 26.9802 1.84541C27.0857 1.98739 27.1601 2.15008 27.1984 2.32281C27.2357 2.49426 27.2371 2.67159 27.2024 2.84359L27.1912 2.86604Z" fill="url(#paint0_linear_8388_59796)"/>
<path fill-rule="evenodd" clip-rule="evenodd" d="M19.9758 13.2478L18.8859 13.0955C18.0875 12.9813 17.4792 12.7148 17.0737 12.296C16.6555 11.8646 16.4527 11.2554 16.4527 10.4813C16.4527 9.13616 17.2764 8.08286 18.7022 7.74656V7.62601C18.7022 7.21992 18.7149 7.06763 18.8162 6.87093C18.943 6.62347 19.2155 6.4585 19.564 6.4585C19.9125 6.4585 20.185 6.62347 20.3117 6.87093C20.4131 7.06763 20.4258 7.21992 20.4258 7.62601V7.66408C20.901 7.71484 21.3065 7.82271 21.6867 7.96865C22.2444 8.19073 22.6119 8.57778 22.6119 9.06001C22.6119 9.27575 22.5168 9.54225 22.3457 9.74529C22.2 9.92296 21.9782 10.0499 21.6994 10.0499C21.4459 10.0499 21.1545 9.93565 20.9137 9.83412C20.5271 9.66915 20.0899 9.58032 19.6844 9.58032C18.9113 9.58032 18.5945 10.0118 18.5945 10.3417C18.5945 10.5194 18.6325 10.6844 18.7719 10.824C18.8859 10.9382 19.076 11.046 19.3929 11.0905L20.4828 11.2427C21.2939 11.357 21.8768 11.6108 22.257 11.9915C22.7386 12.461 22.9287 13.1336 22.9287 13.9712C22.9287 15.4813 21.8578 16.4331 20.4258 16.7186V17.0676C20.4258 17.4737 20.4131 17.626 20.3117 17.8227C20.185 18.0701 19.9125 18.2351 19.564 18.2351C19.2155 18.2351 18.943 18.0701 18.8162 17.8227C18.7149 17.626 18.7022 17.4737 18.7022 17.0676V16.7884C18.2269 16.7504 17.7834 16.6742 17.3778 16.5092C16.6428 16.2174 16.1992 15.8747 16.1992 15.2148C16.1992 14.9737 16.3133 14.6818 16.5034 14.4915C16.6808 14.3138 16.8836 14.2504 17.1117 14.2504C17.3461 14.2504 17.5362 14.3328 17.9735 14.5169C18.417 14.7072 18.905 14.8468 19.4562 14.8468C20.3307 14.8468 20.7489 14.5422 20.7489 14.0219C20.7489 13.8062 20.6982 13.6285 20.5715 13.4889C20.4574 13.3747 20.2673 13.2859 19.9758 13.2478Z" fill="white"/>
<defs>
<linearGradient id="paint0_linear_8388_59796" x1="9.95117" y1="1.61548" x2="34.2379" y2="15.5005" gradientUnits="userSpaceOnUse">
<stop stop-color="#FF4F42"/>
<stop offset="1" stop-color="#FF8E3C"/>
</linearGradient>
</defs>
</svg>
