<svg width="28" height="28" viewBox="0 0 28 28" fill="none" xmlns="http://www.w3.org/2000/svg">
<rect x="1.18945" width="17.0525" height="22.8419" rx="1.28405" fill="#612FFF"/>
<rect x="9.75781" y="5.1582" width="17.0525" height="22.8419" rx="1.28405" fill="url(#paint0_linear_8388_59376)"/>
<path d="M17.8782 19.5966C17.7233 19.5968 17.5744 19.5286 17.4629 19.4063C17.3513 19.284 17.2859 19.1172 17.2803 18.941C17.2784 18.8733 17.2775 18.804 17.2775 18.7328C17.2775 17.8102 17.6052 16.8092 18.5882 15.9652L19.468 15.2193C19.9336 14.8266 20.0888 14.3555 20.0888 13.8452C20.0888 13.0796 19.5887 12.3337 18.5538 12.3337C17.5536 12.3337 16.9671 13.2564 16.9671 14.1788V14.1922C16.9672 14.2843 16.9511 14.3754 16.9195 14.4602C16.888 14.545 16.8418 14.6217 16.7836 14.6857C16.7255 14.7496 16.6566 14.7996 16.5811 14.8326C16.5055 14.8656 16.425 14.8809 16.3441 14.8776L15.1179 14.8277C14.9663 14.8217 14.8224 14.7507 14.715 14.629C14.6075 14.5073 14.5444 14.3439 14.5383 14.1715C14.5361 14.1066 14.5352 14.0433 14.5352 13.9824C14.5352 11.6858 16.0357 9.74243 18.5538 9.74243C21.3479 9.74243 22.745 11.6464 22.745 13.6094C22.745 15.1796 22.1067 16.2593 21.0719 17.1426L20.4165 17.6917C19.9419 18.0935 19.5846 18.4943 19.4535 19.0768C19.4211 19.2246 19.3464 19.3558 19.2412 19.4498C19.136 19.5438 19.0062 19.5952 18.8724 19.5958L17.8782 19.5966ZM18.433 20.7546C18.8309 20.7549 19.2124 20.9349 19.4938 21.2551C19.7751 21.5753 19.9333 22.0095 19.9336 22.4624C19.9336 23.3849 19.261 24.1506 18.433 24.1506C17.6051 24.1506 16.9504 23.3849 16.9504 22.4624C16.9498 21.5202 17.6052 20.7546 18.433 20.7546Z" fill="white"/>
<defs>
<linearGradient id="paint0_linear_8388_59376" x1="9.75781" y1="5.1582" x2="31.6575" y2="21.5073" gradientUnits="userSpaceOnUse">
<stop stop-color="#FF4F42"/>
<stop offset="1" stop-color="#FF8E3C"/>
</linearGradient>
</defs>
</svg>
