<svg width="28" height="28" viewBox="0 0 28 28" fill="none" xmlns="http://www.w3.org/2000/svg">
<path fill-rule="evenodd" clip-rule="evenodd" d="M27.072 7.23492C27.7934 7.75407 27.8145 8.82042 27.1142 9.36772L20.3072 14.6876C20.0822 14.8634 19.8306 14.9528 19.581 14.9698C20.0091 15.3599 20.3116 15.8898 20.4141 16.4966L21.247 21.4267C21.5219 23.0539 20.2678 24.5376 18.6176 24.5376H10.4392C10.2342 24.5376 10.0346 24.5144 9.84286 24.4706V24.5809C9.84286 25.6675 8.61274 26.2979 7.73073 25.6631L0.923681 20.7647C0.202246 20.2455 0.181128 19.1792 0.881441 18.6319L7.68849 13.312C7.9126 13.1369 8.16316 13.0475 8.41194 13.03C7.98392 12.64 7.68143 12.1101 7.57893 11.5034L6.74603 6.57325C6.47114 4.94608 7.72522 3.46237 9.37544 3.46237L17.5538 3.46237C17.7598 3.46237 17.9603 3.48572 18.1528 3.5299V3.4187C18.1528 2.33206 19.3829 1.70175 20.2649 2.33646L27.072 7.23492ZM9.65063 13.6672C9.76806 13.8591 9.83891 14.0871 9.8427 14.3411C10.0345 14.2973 10.2342 14.2741 10.4392 14.2741L17.7847 14.2741C17.9766 14.2741 18.1643 14.2945 18.3456 14.3334C18.2278 14.1412 18.1567 13.9128 18.1529 13.6583C17.9604 13.7025 17.7598 13.7258 17.5538 13.7258L10.2083 13.7258C10.0176 13.7258 9.83097 13.7057 9.65063 13.6672Z" fill="white"/>
<path fill-rule="evenodd" clip-rule="evenodd" d="M0.881649 18.632C0.181336 19.1793 0.202454 20.2457 0.92389 20.7648L7.73094 25.6633C8.61295 26.298 9.84307 25.6677 9.84307 24.5811L9.84307 24.4708C10.0348 24.5146 10.2344 24.5377 10.4394 24.5377L18.6178 24.5377C20.268 24.5377 21.5221 23.054 21.2472 21.4268L20.4143 16.4967C20.1975 15.2135 19.0863 14.2742 17.7849 14.2743L10.4394 14.2743C10.2344 14.2743 10.0347 14.2974 9.84291 14.3412C9.82653 13.2438 8.55839 12.6325 7.6887 13.3122L0.881649 18.632Z" fill="url(#paint0_linear_8388_59793)"/>
<g style="mix-blend-mode:multiply">
<path fill-rule="evenodd" clip-rule="evenodd" d="M27.1151 9.36772C27.8154 8.82041 27.7943 7.75407 27.0729 7.23492L20.2658 2.33646C19.3838 1.70175 18.1537 2.33206 18.1537 3.4187L18.1537 3.52991C17.9611 3.48572 17.7606 3.46237 17.5547 3.46237L9.37633 3.46237C7.7261 3.46237 6.47203 4.94608 6.74692 6.57325L7.57981 11.5034C7.79659 12.7865 8.90788 13.7258 10.2092 13.7258L17.5547 13.7258C17.7607 13.7258 17.9612 13.7025 18.1538 13.6583C18.17 14.7559 19.4383 15.3673 20.308 14.6876L27.1151 9.36772Z" fill="#612FFF"/>
</g>
<defs>
<linearGradient id="paint0_linear_8388_59793" x1="21.2852" y1="25.9167" x2="9.77089" y2="7.23302" gradientUnits="userSpaceOnUse">
<stop stop-color="#FF4F42"/>
<stop offset="1" stop-color="#FF8E3C"/>
</linearGradient>
</defs>
</svg>
