<svg width="31" height="28" viewBox="0 0 31 28" fill="none" xmlns="http://www.w3.org/2000/svg">
<path d="M22.5903 5.19796C21.801 5.3988 20.987 5.57343 20.1558 5.72114C19.9323 5.289 19.6932 4.87256 19.4385 4.47183C18.8104 3.48783 18.0945 2.62993 17.3359 1.9502C17.6864 2.06543 18.0327 2.19531 18.3747 2.33983C19.9473 3.00696 21.376 3.97426 22.5815 5.18805L22.5903 5.19796Z" fill="url(#paint0_linear_8388_59787)"/>
<path d="M18.9428 5.91435C17.2409 6.15633 15.5254 6.28908 13.8066 6.31178V1.36133C14.4954 1.47715 15.2116 1.79311 15.9085 2.29184C16.8258 2.94855 17.7079 3.92121 18.4615 5.10073C18.6295 5.36379 18.7899 5.63499 18.9428 5.91435Z" fill="url(#paint1_linear_8388_59787)"/>
<path d="M12.6417 1.36133V6.31178C10.9231 6.28907 9.20764 6.15632 7.50586 5.91435C7.65899 5.6357 7.81941 5.36414 7.98712 5.09966C8.74077 3.91837 9.62356 2.94748 10.5402 2.29078C11.2356 1.79417 11.953 1.47715 12.6417 1.36133Z" fill="url(#paint2_linear_8388_59787)"/>
<path d="M9.11178 1.9502C8.3532 2.63064 7.6373 3.48783 7.00926 4.47183C6.75381 4.87162 6.51471 5.28805 6.29196 5.72114C5.45892 5.57343 4.64529 5.3988 3.85742 5.19796L3.8673 5.1884C5.07287 3.97461 6.50168 3.00731 8.07446 2.34018C8.41506 2.19519 8.76084 2.0652 9.11178 1.9502Z" fill="url(#paint3_linear_8388_59787)"/>
<path d="M5.77549 6.81186C5.46713 7.53295 5.20468 8.27297 4.98973 9.02744C4.5291 10.6456 4.27317 12.3154 4.22797 13.9977H0C0.120625 11.1337 1.16471 8.38649 2.97507 6.16968C3.87761 6.41869 4.81332 6.63298 5.77549 6.81186Z" fill="url(#paint4_linear_8388_59787)"/>
<path d="M12.6369 7.47961V13.9972H5.38867C5.43366 12.4238 5.67415 10.8623 6.10457 9.34881C6.33133 8.54996 6.61539 7.76865 6.95454 7.01099C8.83571 7.29781 10.7343 7.45439 12.6369 7.47961V7.47961Z" fill="url(#paint5_linear_8388_59787)"/>
<path d="M21.0552 13.9983H13.8066V7.4808C15.7093 7.45641 17.608 7.30066 19.4893 7.01465C19.8283 7.77237 20.1124 8.55367 20.3393 9.35246C20.7695 10.8652 21.01 12.4259 21.0552 13.9983V13.9983Z" fill="url(#paint6_linear_8388_59787)"/>
<path d="M26.4451 14H22.216C22.1708 12.3177 21.915 10.6479 21.4546 9.02969C21.2398 8.27531 20.9777 7.5353 20.6699 6.8141C21.6314 6.637 22.5678 6.42093 23.4703 6.17334C25.2808 8.39008 26.3248 11.1373 26.4451 14.0014V14Z" fill="url(#paint7_linear_8388_59787)"/>
<path d="M26.4451 15.1658C26.3248 18.0298 25.2808 20.7771 23.4703 22.9938C22.5678 22.7459 21.6314 22.5333 20.6699 22.3534C20.9777 21.6321 21.2397 20.8919 21.4546 20.1375C21.915 18.5194 22.1708 16.8497 22.216 15.1675L26.4451 15.1658Z" fill="url(#paint8_linear_8388_59787)"/>
<path d="M21.0538 15.1658C21.0092 16.7389 20.7692 18.3003 20.3393 19.8138C20.1123 20.6126 19.8283 21.3939 19.4893 22.1516C17.608 21.8654 15.7093 21.7097 13.8066 21.6855V15.1679L21.0538 15.1658Z" fill="url(#paint9_linear_8388_59787)"/>
<path d="M12.641 15.1662V21.6838C10.739 21.7081 8.84103 21.8638 6.9604 22.1499C6.62133 21.3922 6.33726 20.6109 6.11043 19.8121C5.68004 18.2987 5.43954 16.7373 5.39453 15.1641L12.641 15.1662Z" fill="url(#paint10_linear_8388_59787)"/>
<path d="M5.77586 22.3513C4.81404 22.5284 3.87763 22.7442 2.97508 22.9921C1.16487 20.7752 0.120803 18.0281 0 15.1641H4.22905C4.27378 16.8467 4.52935 18.5169 4.98975 20.1354C5.20477 20.89 5.46734 21.6302 5.77586 22.3513V22.3513Z" fill="url(#paint11_linear_8388_59787)"/>
<path d="M9.10734 27.2158C8.75709 27.1008 8.41085 26.9709 8.0686 26.8262C6.49577 26.1593 5.06693 25.1922 3.86144 23.9784L3.85156 23.9685C4.64085 23.768 5.45448 23.5934 6.2861 23.4453C6.50909 23.8779 6.74819 24.2943 7.00341 24.6946C7.63356 25.6779 8.34875 26.5354 9.10734 27.2158Z" fill="url(#paint12_linear_8388_59787)"/>
<path d="M12.6417 22.8545V27.8045C11.953 27.688 11.2356 27.3731 10.5402 26.8733C9.62285 26.2169 8.74077 25.2439 7.98712 24.0644C7.81917 23.8012 7.65875 23.5296 7.50586 23.2498C9.20767 23.0083 10.9231 22.8763 12.6417 22.8545V22.8545Z" fill="url(#paint13_linear_8388_59787)"/>
<path d="M18.9428 23.2516C18.7897 23.5302 18.6293 23.8018 18.4615 24.0662C17.7079 25.2475 16.8248 26.2188 15.9085 26.8751C15.2116 27.3742 14.4971 27.6898 13.8066 27.8056V22.8545C15.5254 22.8769 17.2409 23.0095 18.9428 23.2516V23.2516Z" fill="url(#paint14_linear_8388_59787)"/>
<path d="M22.5917 23.9689L22.5815 23.9789C21.3761 25.1927 19.9474 26.1598 18.3747 26.8267C18.0327 26.9715 17.6864 27.1013 17.3359 27.2163C18.0945 26.5359 18.8104 25.6784 19.4385 24.6944C19.6937 24.2946 19.9328 23.8781 20.1558 23.4451C20.9884 23.5938 21.8024 23.7685 22.5917 23.9689Z" fill="url(#paint15_linear_8388_59787)"/>
<circle cx="23.15" cy="7.99502" r="7.41176" fill="#612FFF"/>
<path fill-rule="evenodd" clip-rule="evenodd" d="M23.9149 8.75122L22.9812 8.62343C22.2973 8.52759 21.7762 8.30395 21.4288 7.95253C21.0705 7.59047 20.8968 7.07931 20.8968 6.42972C20.8968 5.30091 21.6025 4.41704 22.8238 4.13484V4.03367C22.8238 3.6929 22.8347 3.56511 22.9215 3.40005C23.0301 3.19239 23.2635 3.05396 23.562 3.05396C23.8606 3.05396 24.094 3.19239 24.2026 3.40005C24.2894 3.56511 24.3003 3.6929 24.3003 4.03367V4.06562C24.7074 4.10821 25.0548 4.19873 25.3805 4.3212C25.8582 4.50756 26.173 4.83235 26.173 5.23702C26.173 5.41805 26.0916 5.64168 25.945 5.81207C25.8202 5.96116 25.6302 6.06765 25.3913 6.06765C25.1742 6.06765 24.9245 5.9718 24.7182 5.88661C24.3871 5.74817 24.0126 5.67363 23.6652 5.67363C23.0029 5.67363 22.7315 6.0357 22.7315 6.31258C22.7315 6.46166 22.7641 6.6001 22.8835 6.71724C22.9812 6.81308 23.1441 6.9036 23.4155 6.94087L24.3491 7.06866C25.0439 7.1645 25.5433 7.37748 25.869 7.69696C26.2815 8.09097 26.4444 8.65537 26.4444 9.35821C26.4444 10.6255 25.527 11.4241 24.3003 11.6637V11.9566C24.3003 12.2974 24.2894 12.4252 24.2026 12.5902C24.094 12.7979 23.8606 12.9363 23.562 12.9363C23.2635 12.9363 23.0301 12.7979 22.9215 12.5902C22.8347 12.4252 22.8238 12.2974 22.8238 11.9566V11.7223C22.4167 11.6904 22.0367 11.6265 21.6893 11.488C21.0597 11.2431 20.6797 10.9556 20.6797 10.4018C20.6797 10.1995 20.7774 9.95456 20.9402 9.79483C21.0922 9.64574 21.2659 9.59249 21.4613 9.59249C21.6622 9.59249 21.825 9.66171 22.1996 9.81612C22.5795 9.97586 22.9975 10.093 23.4698 10.093C24.2188 10.093 24.5771 9.83742 24.5771 9.40081C24.5771 9.21978 24.5337 9.07069 24.4251 8.95355C24.3274 8.85771 24.1646 8.78316 23.9149 8.75122Z" fill="white"/>
<defs>
<linearGradient id="paint0_linear_8388_59787" x1="17.3359" y1="1.9502" x2="20.9085" y2="6.92813" gradientUnits="userSpaceOnUse">
<stop stop-color="#D200A3"/>
<stop offset="1" stop-color="#F80F6B"/>
</linearGradient>
<linearGradient id="paint1_linear_8388_59787" x1="13.8066" y1="1.36133" x2="18.7537" y2="6.49402" gradientUnits="userSpaceOnUse">
<stop stop-color="#D200A3"/>
<stop offset="1" stop-color="#F80F6B"/>
</linearGradient>
<linearGradient id="paint2_linear_8388_59787" x1="7.50586" y1="1.36133" x2="12.453" y2="6.49368" gradientUnits="userSpaceOnUse">
<stop stop-color="#D200A3"/>
<stop offset="1" stop-color="#F80F6B"/>
</linearGradient>
<linearGradient id="paint3_linear_8388_59787" x1="3.85742" y1="1.9502" x2="7.42998" y2="6.92813" gradientUnits="userSpaceOnUse">
<stop stop-color="#D200A3"/>
<stop offset="1" stop-color="#F80F6B"/>
</linearGradient>
<linearGradient id="paint4_linear_8388_59787" x1="0" y1="6.16968" x2="7.47955" y2="11.688" gradientUnits="userSpaceOnUse">
<stop stop-color="#D200A3"/>
<stop offset="1" stop-color="#F80F6B"/>
</linearGradient>
<linearGradient id="paint5_linear_8388_59787" x1="5.38867" y1="7.01099" x2="12.3701" y2="14.2543" gradientUnits="userSpaceOnUse">
<stop stop-color="#D200A3"/>
<stop offset="1" stop-color="#F80F6B"/>
</linearGradient>
<linearGradient id="paint6_linear_8388_59787" x1="13.8066" y1="7.01465" x2="20.7855" y2="14.2582" gradientUnits="userSpaceOnUse">
<stop stop-color="#D200A3"/>
<stop offset="1" stop-color="#F80F6B"/>
</linearGradient>
<linearGradient id="paint7_linear_8388_59787" x1="20.6699" y1="6.17334" x2="28.1493" y2="11.6913" gradientUnits="userSpaceOnUse">
<stop stop-color="#D200A3"/>
<stop offset="1" stop-color="#F80F6B"/>
</linearGradient>
<linearGradient id="paint8_linear_8388_59787" x1="20.6699" y1="15.1658" x2="28.1493" y2="20.6837" gradientUnits="userSpaceOnUse">
<stop stop-color="#D200A3"/>
<stop offset="1" stop-color="#F80F6B"/>
</linearGradient>
<linearGradient id="paint9_linear_8388_59787" x1="13.8066" y1="15.1658" x2="20.7878" y2="22.408" gradientUnits="userSpaceOnUse">
<stop stop-color="#D200A3"/>
<stop offset="1" stop-color="#F80F6B"/>
</linearGradient>
<linearGradient id="paint10_linear_8388_59787" x1="5.39453" y1="15.1641" x2="12.3757" y2="22.4057" gradientUnits="userSpaceOnUse">
<stop stop-color="#D200A3"/>
<stop offset="1" stop-color="#F80F6B"/>
</linearGradient>
<linearGradient id="paint11_linear_8388_59787" x1="0" y1="15.1641" x2="7.47969" y2="20.6829" gradientUnits="userSpaceOnUse">
<stop stop-color="#D200A3"/>
<stop offset="1" stop-color="#F80F6B"/>
</linearGradient>
<linearGradient id="paint12_linear_8388_59787" x1="3.85156" y1="23.4453" x2="7.42324" y2="28.424" gradientUnits="userSpaceOnUse">
<stop stop-color="#D200A3"/>
<stop offset="1" stop-color="#F80F6B"/>
</linearGradient>
<linearGradient id="paint13_linear_8388_59787" x1="7.50586" y1="22.8545" x2="12.4525" y2="27.9868" gradientUnits="userSpaceOnUse">
<stop stop-color="#D200A3"/>
<stop offset="1" stop-color="#F80F6B"/>
</linearGradient>
<linearGradient id="paint14_linear_8388_59787" x1="13.8066" y1="22.8545" x2="18.7544" y2="27.9872" gradientUnits="userSpaceOnUse">
<stop stop-color="#D200A3"/>
<stop offset="1" stop-color="#F80F6B"/>
</linearGradient>
<linearGradient id="paint15_linear_8388_59787" x1="17.3359" y1="23.4451" x2="20.9086" y2="28.4241" gradientUnits="userSpaceOnUse">
<stop stop-color="#D200A3"/>
<stop offset="1" stop-color="#F80F6B"/>
</linearGradient>
</defs>
</svg>
