<svg width="28" height="28" viewBox="0 0 28 28" fill="none" xmlns="http://www.w3.org/2000/svg">
<path fill-rule="evenodd" clip-rule="evenodd" d="M26.4453 4.66667C26.4453 7.244 24.356 9.33333 21.7786 9.33333C19.2013 9.33333 17.112 7.244 17.112 4.66667C17.112 2.08934 19.2013 0 21.7786 0C24.356 0 26.4453 2.08934 26.4453 4.66667ZM9.33333 14C9.33333 16.5773 7.244 18.6667 4.66667 18.6667C2.08934 18.6667 0 16.5773 0 14C0 11.4227 2.08934 9.33333 4.66667 9.33333C7.244 9.33333 9.33333 11.4227 9.33333 14ZM18.6667 28C21.244 28 23.3333 25.9107 23.3333 23.3333C23.3333 20.756 21.244 18.6667 18.6667 18.6667C16.0893 18.6667 14 20.756 14 23.3333C14 25.9107 16.0893 28 18.6667 28Z" fill="white"/>
<path d="M24.145 4.61447C23.3557 4.81531 22.5417 4.98993 21.7105 5.13764C21.487 4.7055 21.2479 4.28906 20.9931 3.88833C20.3651 2.90433 19.6492 2.04643 18.8906 1.3667C19.2411 1.48194 19.5873 1.61181 19.9294 1.75633C21.502 2.42346 22.9307 3.39076 24.1362 4.60455L24.145 4.61447Z" fill="url(#paint0_linear_8388_59792)"/>
<path d="M20.4975 5.33085C18.7956 5.57284 17.0801 5.70559 15.3613 5.72828V0.777832C16.0501 0.893659 16.7663 1.20962 17.4631 1.70834C18.3805 2.36505 19.2626 3.33771 20.0162 4.51723C20.1842 4.78029 20.3446 5.0515 20.4975 5.33085Z" fill="url(#paint1_linear_8388_59792)"/>
<path d="M14.1964 0.777832V5.72828C12.4778 5.70557 10.7623 5.57283 9.06055 5.33085C9.21368 5.05221 9.3741 4.78065 9.54181 4.51617C10.2955 3.33488 11.1782 2.36399 12.0949 1.70728C12.7903 1.21068 13.5076 0.893659 14.1964 0.777832Z" fill="url(#paint2_linear_8388_59792)"/>
<path d="M10.6665 1.3667C9.90789 2.04714 9.19199 2.90433 8.56395 3.88833C8.3085 4.28812 8.0694 4.70456 7.84665 5.13764C7.01361 4.98993 6.19998 4.81531 5.41211 4.61447L5.42199 4.60491C6.62756 3.39111 8.05637 2.42381 9.62915 1.75669C9.96975 1.6117 10.3155 1.4817 10.6665 1.3667Z" fill="url(#paint3_linear_8388_59792)"/>
<path d="M7.33018 6.22836C7.02182 6.94945 6.75937 7.68947 6.54442 8.44395C6.08379 10.0621 5.82785 11.7319 5.78266 13.4142H1.55469C1.67531 10.5502 2.71939 7.80299 4.52976 5.58618C5.4323 5.83519 6.36801 6.04948 7.33018 6.22836Z" fill="url(#paint4_linear_8388_59792)"/>
<path d="M14.1916 6.89612V13.4137H6.94336C6.98834 11.8403 7.22883 10.2788 7.65925 8.76531C7.88602 7.96647 8.17008 7.18515 8.50923 6.42749C10.3904 6.71431 12.289 6.87089 14.1916 6.89612V6.89612Z" fill="url(#paint5_linear_8388_59792)"/>
<path d="M22.6099 13.4148H15.3613V6.8973C17.264 6.87291 19.1627 6.71716 21.044 6.43115C21.383 7.18888 21.6671 7.97018 21.894 8.76897C22.3242 10.2817 22.5647 11.8424 22.6099 13.4148V13.4148Z" fill="url(#paint6_linear_8388_59792)"/>
<path d="M27.9998 13.4167H23.7707C23.7255 11.7345 23.4697 10.0646 23.0093 8.44644C22.7945 7.69206 22.5324 6.95205 22.2246 6.23085C23.1861 6.05375 24.1225 5.83768 25.025 5.59009C26.8355 7.80683 27.8795 10.5541 27.9998 13.4181V13.4167Z" fill="url(#paint7_linear_8388_59792)"/>
<path d="M27.9998 14.5825C27.8795 17.4466 26.8355 20.1938 25.025 22.4106C24.1225 22.1626 23.1861 21.9501 22.2246 21.7702C22.5323 21.0488 22.7944 20.3087 23.0093 19.5542C23.4697 17.9362 23.7255 16.2664 23.7707 14.5843L27.9998 14.5825Z" fill="url(#paint8_linear_8388_59792)"/>
<path d="M22.6085 14.5825C22.5639 16.1557 22.3239 17.7171 21.894 19.2305C21.667 20.0293 21.3829 20.8106 21.044 21.5684C19.1627 21.2822 17.264 21.1264 15.3613 21.1022V14.5846L22.6085 14.5825Z" fill="url(#paint9_linear_8388_59792)"/>
<path d="M14.1976 14.5827V21.1003C12.2957 21.1246 10.3977 21.2803 8.51704 21.5664C8.17797 20.8087 7.8939 20.0274 7.66707 19.2286C7.23668 17.7152 6.99618 16.1538 6.95117 14.5806L14.1976 14.5827Z" fill="url(#paint10_linear_8388_59792)"/>
<path d="M7.33055 21.7678C6.36873 21.945 5.43231 22.1607 4.52977 22.4086C2.71955 20.1917 1.67549 17.4446 1.55469 14.5806H5.78373C5.82846 16.2632 6.08404 17.9334 6.54444 19.5519C6.75946 20.3065 7.02203 21.0467 7.33055 21.7678V21.7678Z" fill="url(#paint11_linear_8388_59792)"/>
<path d="M10.662 26.6323C10.3118 26.5173 9.96554 26.3874 9.62329 26.2427C8.05046 25.5758 6.62161 24.6087 5.41613 23.3949L5.40625 23.385C6.19553 23.1845 7.00916 23.0099 7.84079 22.8618C8.06378 23.2944 8.30288 23.7108 8.55809 24.1111C9.18825 25.0944 9.90344 25.9519 10.662 26.6323Z" fill="url(#paint12_linear_8388_59792)"/>
<path d="M14.1964 22.2712V27.2212C13.5076 27.1047 12.7903 26.7898 12.0949 26.29C11.1775 25.6337 10.2955 24.6607 9.54181 23.4812C9.37386 23.2179 9.21344 22.9463 9.06055 22.6665C10.7624 22.4251 12.4778 22.2931 14.1964 22.2712V22.2712Z" fill="url(#paint13_linear_8388_59792)"/>
<path d="M20.4975 22.6683C20.3444 22.947 20.1839 23.2185 20.0162 23.483C19.2626 24.6643 18.3795 25.6355 17.4631 26.2919C16.7663 26.7909 16.0518 27.1065 15.3613 27.2224V22.2712C17.0801 22.2936 18.7956 22.4263 20.4975 22.6683V22.6683Z" fill="url(#paint14_linear_8388_59792)"/>
<path d="M24.1464 23.3857L24.1362 23.3956C22.9308 24.6094 21.5021 25.5766 19.9294 26.2435C19.5873 26.3882 19.2411 26.5181 18.8906 26.6331C19.6492 25.9527 20.3651 25.0951 20.9931 24.1111C21.2484 23.7113 21.4875 23.2949 21.7105 22.8618C22.5431 23.0106 23.3571 23.1852 24.1464 23.3857Z" fill="url(#paint15_linear_8388_59792)"/>
<ellipse cx="21.778" cy="4.66667" rx="4.66667" ry="4.66667" fill="#612FFF"/>
<circle cx="4.66667" cy="13.9999" r="4.66667" fill="#612FFF"/>
<circle cx="18.6667" cy="23.3334" r="4.66667" fill="#612FFF"/>
<defs>
<linearGradient id="paint0_linear_8388_59792" x1="18.8906" y1="1.3667" x2="22.4632" y2="6.34464" gradientUnits="userSpaceOnUse">
<stop stop-color="#FF4F42"/>
<stop offset="1" stop-color="#FF8E3C"/>
</linearGradient>
<linearGradient id="paint1_linear_8388_59792" x1="15.3613" y1="0.777832" x2="20.3084" y2="5.91052" gradientUnits="userSpaceOnUse">
<stop stop-color="#FF4F42"/>
<stop offset="1" stop-color="#FF8E3C"/>
</linearGradient>
<linearGradient id="paint2_linear_8388_59792" x1="9.06055" y1="0.777832" x2="14.0077" y2="5.91019" gradientUnits="userSpaceOnUse">
<stop stop-color="#FF4F42"/>
<stop offset="1" stop-color="#FF8E3C"/>
</linearGradient>
<linearGradient id="paint3_linear_8388_59792" x1="5.41211" y1="1.3667" x2="8.98466" y2="6.34464" gradientUnits="userSpaceOnUse">
<stop stop-color="#FF4F42"/>
<stop offset="1" stop-color="#FF8E3C"/>
</linearGradient>
<linearGradient id="paint4_linear_8388_59792" x1="1.55469" y1="5.58618" x2="9.03424" y2="11.1046" gradientUnits="userSpaceOnUse">
<stop stop-color="#FF4F42"/>
<stop offset="1" stop-color="#FF8E3C"/>
</linearGradient>
<linearGradient id="paint5_linear_8388_59792" x1="6.94336" y1="6.42749" x2="13.9248" y2="13.6708" gradientUnits="userSpaceOnUse">
<stop stop-color="#FF4F42"/>
<stop offset="1" stop-color="#FF8E3C"/>
</linearGradient>
<linearGradient id="paint6_linear_8388_59792" x1="15.3613" y1="6.43115" x2="22.3402" y2="13.6747" gradientUnits="userSpaceOnUse">
<stop stop-color="#FF4F42"/>
<stop offset="1" stop-color="#FF8E3C"/>
</linearGradient>
<linearGradient id="paint7_linear_8388_59792" x1="22.2246" y1="5.59009" x2="29.704" y2="11.108" gradientUnits="userSpaceOnUse">
<stop stop-color="#FF4F42"/>
<stop offset="1" stop-color="#FF8E3C"/>
</linearGradient>
<linearGradient id="paint8_linear_8388_59792" x1="22.2246" y1="14.5825" x2="29.704" y2="20.1005" gradientUnits="userSpaceOnUse">
<stop stop-color="#FF4F42"/>
<stop offset="1" stop-color="#FF8E3C"/>
</linearGradient>
<linearGradient id="paint9_linear_8388_59792" x1="15.3613" y1="14.5825" x2="22.3425" y2="21.8248" gradientUnits="userSpaceOnUse">
<stop stop-color="#FF4F42"/>
<stop offset="1" stop-color="#FF8E3C"/>
</linearGradient>
<linearGradient id="paint10_linear_8388_59792" x1="6.95117" y1="14.5806" x2="13.9323" y2="21.8222" gradientUnits="userSpaceOnUse">
<stop stop-color="#FF4F42"/>
<stop offset="1" stop-color="#FF8E3C"/>
</linearGradient>
<linearGradient id="paint11_linear_8388_59792" x1="1.55469" y1="14.5806" x2="9.03438" y2="20.0994" gradientUnits="userSpaceOnUse">
<stop stop-color="#FF4F42"/>
<stop offset="1" stop-color="#FF8E3C"/>
</linearGradient>
<linearGradient id="paint12_linear_8388_59792" x1="5.40625" y1="22.8618" x2="8.97793" y2="27.8405" gradientUnits="userSpaceOnUse">
<stop stop-color="#FF4F42"/>
<stop offset="1" stop-color="#FF8E3C"/>
</linearGradient>
<linearGradient id="paint13_linear_8388_59792" x1="9.06055" y1="22.2712" x2="14.0072" y2="27.4036" gradientUnits="userSpaceOnUse">
<stop stop-color="#FF4F42"/>
<stop offset="1" stop-color="#FF8E3C"/>
</linearGradient>
<linearGradient id="paint14_linear_8388_59792" x1="15.3613" y1="22.2712" x2="20.3091" y2="27.404" gradientUnits="userSpaceOnUse">
<stop stop-color="#FF4F42"/>
<stop offset="1" stop-color="#FF8E3C"/>
</linearGradient>
<linearGradient id="paint15_linear_8388_59792" x1="18.8906" y1="22.8618" x2="22.4633" y2="27.8408" gradientUnits="userSpaceOnUse">
<stop stop-color="#FF4F42"/>
<stop offset="1" stop-color="#FF8E3C"/>
</linearGradient>
</defs>
</svg>
