<svg width="28" height="21" viewBox="0 0 28 21" fill="none" xmlns="http://www.w3.org/2000/svg">
<path d="M2.06391 0C0.935957 0 0 0.8747 0 1.97958V12.3379C0 13.4197 0.935957 14.3175 2.06391 14.3175H20.0631C21.191 14.3175 22.127 13.4428 22.127 12.3379V1.97958C22.127 0.897718 21.215 0 20.0631 0H2.06391Z" fill="#612FFF"/>
<path d="M4.99945 2.93652C3.8715 2.93652 2.93555 3.81122 2.93555 4.91611V15.2744C2.93555 16.3563 3.8715 17.254 4.99945 17.254H22.9986C24.1266 17.254 25.0625 16.3793 25.0625 15.2744V4.91611C25.0625 3.83424 24.1506 2.93652 22.9986 2.93652H4.99945Z" fill="#612FFF"/>
<path d="M7.93695 5.87451C6.809 5.87451 5.87305 6.74921 5.87305 7.8541V18.2124C5.87305 19.2943 6.809 20.192 7.93695 20.192H25.9361C27.0641 20.192 28 19.3173 28 18.2124V7.8541C28 6.77223 27.0881 5.87451 25.9361 5.87451H7.93695Z" fill="url(#paint0_linear_8388_59790)"/>
<path fill-rule="evenodd" clip-rule="evenodd" d="M10.9305 16.9675C10.9305 17.4175 10.5657 17.7824 10.1156 17.7824H8.58443C8.13437 17.7824 7.76953 17.4175 7.76953 16.9675V16.9675C7.76953 16.5174 8.13438 16.1526 8.58443 16.1526H10.1156C10.5657 16.1526 10.9305 16.5174 10.9305 16.9675V16.9675Z" fill="white"/>
<path fill-rule="evenodd" clip-rule="evenodd" d="M15.9891 16.9675C15.9891 17.4175 15.6243 17.7824 15.1742 17.7824H13.643C13.193 17.7824 12.8281 17.4175 12.8281 16.9675V16.9675C12.8281 16.5174 13.193 16.1526 13.643 16.1526H15.1742C15.6243 16.1526 15.9891 16.5174 15.9891 16.9675V16.9675Z" fill="white"/>
<path fill-rule="evenodd" clip-rule="evenodd" d="M26.4291 16.9675C26.4291 17.4175 26.0643 17.7824 25.6142 17.7824H19.1684C18.7184 17.7824 18.3535 17.4175 18.3535 16.9675V16.9675C18.3535 16.5174 18.7184 16.1526 19.1684 16.1526H25.6142C26.0643 16.1526 26.4291 16.5174 26.4291 16.9675V16.9675Z" fill="white"/>
<defs>
<linearGradient id="paint0_linear_8388_59790" x1="8.90341" y1="7.84316" x2="20.178" y2="25.2565" gradientUnits="userSpaceOnUse">
<stop stop-color="#D200A3"/>
<stop offset="1" stop-color="#612FFF"/>
</linearGradient>
</defs>
</svg>
