<svg width="33" height="28" viewBox="0 0 33 28" fill="none" xmlns="http://www.w3.org/2000/svg">
<path fill-rule="evenodd" clip-rule="evenodd" d="M6.55556 10.1111C5.69645 10.1111 5 10.8075 5 11.6666V14.7778C5 15.6369 5.69645 16.3333 6.55556 16.3333C7.41467 16.3333 8.11111 15.6369 8.11111 14.7778V11.6666C8.11111 10.8075 7.41467 10.1111 6.55556 10.1111ZM23.055 20.4787C23.4023 19.9359 23.2438 19.2144 22.7011 18.8672C22.1583 18.5199 21.4368 18.6784 21.0896 19.2211L18.7865 22.8204C18.5288 23.2232 18.0513 23.428 17.5818 23.337L13.7964 22.6033C13.3546 22.5177 13.0015 22.1856 12.8888 21.75L11.7483 17.3381C11.587 16.7142 10.9505 16.3393 10.3267 16.5005C9.7029 16.6618 9.32793 17.2983 9.4892 17.9221L10.6298 22.334C10.9677 23.641 12.0271 24.6372 13.3524 24.894L17.1379 25.6277C18.5463 25.9007 19.9788 25.2865 20.752 24.078L23.055 20.4787Z" fill="white"/>
<path fill-rule="evenodd" clip-rule="evenodd" d="M1.11091 13.9978L1.11091 12.4417C0.780738 12.8974 0.780738 13.5421 1.11091 13.9978ZM15.3375 7.77763H7.8676C7.14273 7.77763 6.5551 8.36525 6.5551 9.09013V17.354C6.5551 18.0789 7.14273 18.6665 7.8676 18.6665H15.3525L30.5218 23.3554C31.3661 23.6164 32.2219 22.9852 32.2219 22.1014V4.33806C32.2219 3.45429 31.3661 2.82311 30.5218 3.0841L15.3375 7.77763Z" fill="url(#paint0_linear_8388_59341)"/>
<circle cx="11.2216" cy="13.2221" r="1.55556" fill="white"/>
<rect x="5" y="10.1111" width="3.11111" height="6.22222" rx="1.55556" fill="#612FFF"/>
<path fill-rule="evenodd" clip-rule="evenodd" d="M22.7012 18.867C23.244 19.2143 23.4024 19.9358 23.0552 20.4785L20.7521 24.0778C19.9789 25.2863 18.5465 25.9005 17.138 25.6275L13.3526 24.8938C12.0273 24.637 10.9678 23.6408 10.6299 22.3338L9.48936 17.9219C9.32809 17.2981 9.70306 16.6616 10.3269 16.5004C10.9507 16.3391 11.5872 16.7141 11.7484 17.3379L12.889 21.7498C13.0016 22.1855 13.3548 22.5175 13.7965 22.6031L17.582 23.3368C18.0515 23.4278 18.529 23.2231 18.7867 22.8202L21.0897 19.2209C21.437 18.6782 22.1585 18.5197 22.7012 18.867Z" fill="#612FFF"/>
<defs>
<linearGradient id="paint0_linear_8388_59341" x1="0.863281" y1="3.02466" x2="19.5002" y2="31.6868" gradientUnits="userSpaceOnUse">
<stop stop-color="#FF4F42"/>
<stop offset="1" stop-color="#FF8E3C"/>
</linearGradient>
</defs>
</svg>
