<svg width="28" height="28" viewBox="0 0 28 28" fill="none" xmlns="http://www.w3.org/2000/svg">
<path d="M14.5793 26.1465L27.3938 26.1465C27.7286 26.1465 28 25.8751 28 25.5402L28 8.98146C28 8.64664 27.7286 8.37522 27.3938 8.37522L14.5793 8.37522C14.2444 8.37522 13.973 8.64664 13.973 8.98146L13.973 25.5402C13.973 25.8751 14.2444 26.1465 14.5793 26.1465Z" fill="url(#paint0_linear_8388_59370)"/>
<path d="M13.9727 25.2947C13.9727 25.7117 14.384 26.0042 14.7779 25.8673L24.6874 22.4234C24.9312 22.3387 25.0946 22.1089 25.0946 21.8508V5.12984C25.0946 4.7128 24.6833 4.42029 24.2894 4.5572L14.3799 8.00108C14.1361 8.08581 13.9727 8.31562 13.9727 8.57373V25.2947Z" fill="#612FFF"/>
<path d="M13.9727 24.6916C13.9727 25.2306 14.6234 25.5016 15.006 25.1219L21.0763 19.0971C21.191 18.9833 21.2555 18.8284 21.2555 18.6668V2.45562C21.2555 1.91665 20.6048 1.64565 20.2222 2.02529L14.1519 8.04879C14.0372 8.16261 13.9727 8.31752 13.9727 8.47912V24.6916Z" fill="url(#paint1_linear_8388_59370)"/>
<path d="M13.4207 26.1465L0.606241 26.1465C0.271423 26.1465 0 25.8751 0 25.5402L0 8.98146C0 8.64664 0.271422 8.37522 0.60624 8.37522L13.4207 8.37522C13.7556 8.37522 14.027 8.64664 14.027 8.98146L14.027 25.5402C14.027 25.8751 13.7556 26.1465 13.4207 26.1465Z" fill="url(#paint2_linear_8388_59370)"/>
<path d="M14.0273 25.2947C14.0273 25.7117 13.616 26.0042 13.2221 25.8673L3.31259 22.4234C3.06878 22.3387 2.90536 22.1089 2.90536 21.8508V5.12984C2.90536 4.7128 3.31668 4.42029 3.71061 4.5572L13.6201 8.00108C13.8639 8.08581 14.0273 8.31562 14.0273 8.57373V25.2947Z" fill="#612FFF"/>
<path d="M14.0273 24.6916C14.0273 25.2306 13.3766 25.5016 12.994 25.1219L6.92372 19.0971C6.80904 18.9833 6.74454 18.8284 6.74454 18.6668V2.45562C6.74454 1.91665 7.39521 1.64565 7.7778 2.02529L13.8481 8.04879C13.9628 8.16261 14.0273 8.31752 14.0273 8.47912V24.6916Z" fill="url(#paint3_linear_8388_59370)"/>
<defs>
<linearGradient id="paint0_linear_8388_59370" x1="28" y1="26.1465" x2="10.7148" y2="12.5032" gradientUnits="userSpaceOnUse">
<stop stop-color="#FF4F42"/>
<stop offset="1" stop-color="#FF8E3C"/>
</linearGradient>
<linearGradient id="paint1_linear_8388_59370" x1="13.9727" y1="1" x2="27.4112" y2="4.89185" gradientUnits="userSpaceOnUse">
<stop stop-color="#FF4F42"/>
<stop offset="1" stop-color="#FF8E3C"/>
</linearGradient>
<linearGradient id="paint2_linear_8388_59370" x1="0" y1="26.1465" x2="17.2852" y2="12.5032" gradientUnits="userSpaceOnUse">
<stop stop-color="#FF4F42"/>
<stop offset="1" stop-color="#FF8E3C"/>
</linearGradient>
<linearGradient id="paint3_linear_8388_59370" x1="14.0273" y1="1" x2="0.588833" y2="4.89185" gradientUnits="userSpaceOnUse">
<stop stop-color="#FF4F42"/>
<stop offset="1" stop-color="#FF8E3C"/>
</linearGradient>
</defs>
</svg>
