<svg width="28" height="29" viewBox="0 0 28 29" fill="none" xmlns="http://www.w3.org/2000/svg">
<path d="M16.5954 23.4853C16.3161 23.4811 16.049 23.3697 15.8495 23.1741L15.5134 22.838C15.4905 22.815 15.4724 22.7877 15.4602 22.7577C15.4479 22.7277 15.4417 22.6956 15.4419 22.6632C15.4417 22.6308 15.4479 22.5987 15.4602 22.5688C15.4724 22.5388 15.4905 22.5116 15.5134 22.4887L19.0034 18.9987L15.0572 15.0525C15.0285 15.0242 15.0057 14.9905 14.9903 14.9533C14.9749 14.916 14.9671 14.8761 14.9674 14.8358C14.9671 14.7956 14.9749 14.7556 14.9903 14.7185C15.0057 14.6813 15.0285 14.6476 15.0572 14.6194L15.3736 14.303C15.573 14.1073 15.84 13.9958 16.1193 13.9916C16.6389 13.978 17.1338 13.7669 17.5032 13.4014L17.508 13.3966C17.9196 12.9752 18.147 12.3883 18.1161 11.8267C18.1011 11.5372 18.0244 11.2541 17.8913 10.9966C17.7581 10.739 17.5715 10.5129 17.344 10.3332C16.9757 10.0427 16.5178 9.88931 16.0488 9.89944C15.5816 9.90513 15.1295 10.0656 14.7632 10.3556C14.7106 10.3977 14.6577 10.4446 14.6063 10.4949L14.6017 10.4994C14.2335 10.8717 14.022 11.371 14.0106 11.8946C14.0084 12.1646 13.9017 12.4233 13.713 12.6164L13.383 12.9462C13.3546 12.9746 13.3209 12.9972 13.2838 13.0125C13.2466 13.0278 13.2068 13.0356 13.1666 13.0354V13.0354C13.1264 13.0356 13.0866 13.0278 13.0495 13.0125C13.0123 12.9971 12.9786 12.9746 12.9502 12.9462L9.00256 8.99854L0 18.0037L4.20142 22.202L4.75757 21.6411C4.95547 21.439 5.06734 21.1681 5.0697 20.8852C5.0764 20.5913 5.14763 20.3025 5.27834 20.0392C5.40905 19.7759 5.59604 19.5445 5.82608 19.3615C6.18051 19.0806 6.6197 18.9281 7.07196 18.9289C7.52433 18.9281 7.96361 19.0807 8.31808 19.3617C8.53904 19.5382 8.72036 19.7593 8.85023 20.0105C8.9801 20.2617 9.05561 20.5374 9.07184 20.8197C9.08719 21.101 9.04313 21.3824 8.94255 21.6455C8.84197 21.9087 8.68712 22.1477 8.48807 22.347C8.12658 22.7097 7.63935 22.9194 7.12743 22.9325C6.83543 22.937 6.55634 23.0536 6.34796 23.2582L5.80037 23.8058L10.0008 28.0031L13.4892 24.5119C13.512 24.4889 13.5393 24.4707 13.5693 24.4584C13.5993 24.4462 13.6315 24.4401 13.6639 24.4405C13.6963 24.4401 13.7285 24.4462 13.7585 24.4584C13.7884 24.4707 13.8157 24.4889 13.8385 24.5119L14.188 24.8614C14.3768 25.0545 14.4834 25.3132 14.4856 25.5833C14.4924 25.8844 14.5654 26.1803 14.6993 26.45C14.8333 26.7198 15.0248 26.9568 15.2605 27.1444C15.6238 27.4321 16.0737 27.5886 16.5371 27.5886C17.0005 27.5886 17.4504 27.4321 17.8137 27.1444C18.0414 26.9647 18.228 26.7386 18.3612 26.4809C18.4943 26.2233 18.5709 25.9402 18.5858 25.6506C18.6016 25.3625 18.5565 25.0742 18.4535 24.8047C18.3505 24.5351 18.1919 24.2902 17.988 24.086C17.618 23.7145 17.1195 23.4995 16.5954 23.4853V23.4853Z" fill="url(#paint0_linear_8388_59372)"/>
<path d="M24.0721 6.07488C24.0407 6.04368 24.0159 6.00656 23.9991 5.96569C23.9823 5.92481 23.9737 5.881 23.974 5.8368C23.9737 5.79259 23.9823 5.74877 23.9991 5.7079C24.0159 5.66703 24.0407 5.62991 24.0721 5.59871L24.3675 5.30326C24.567 5.10758 24.834 4.99609 25.1134 4.99185C25.6379 4.97843 26.1372 4.76368 26.5076 4.39212C26.7115 4.18789 26.8701 3.94302 26.9731 3.67344C27.0761 3.40386 27.1212 3.11561 27.1054 2.82745C27.0906 2.53788 27.014 2.25483 26.8808 1.99727C26.7477 1.7397 26.561 1.51355 26.3334 1.33397C25.97 1.04626 25.5202 0.889715 25.0568 0.889715C24.5933 0.889715 24.1435 1.04626 23.7802 1.33397C23.5445 1.52167 23.3531 1.7589 23.2194 2.02885C23.0857 2.29879 23.013 2.59484 23.0064 2.89602C23.0043 3.16606 22.8976 3.42478 22.7088 3.61788L22.3993 3.92739C22.3363 3.99014 22.2511 4.02537 22.1622 4.02537C22.0733 4.02537 21.988 3.99014 21.925 3.92739L17.9972 0L14.5712 3.42837C14.54 3.45965 14.5029 3.48441 14.462 3.5012C14.4211 3.518 14.3773 3.5265 14.3331 3.52622C14.2889 3.5265 14.2451 3.518 14.2042 3.5012C14.1634 3.48441 14.1262 3.45965 14.095 3.42837L13.7996 3.13267C13.6038 2.93328 13.4923 2.66617 13.4882 2.38676C13.4747 1.86222 13.2598 1.36299 12.8882 0.992561C12.684 0.788719 12.4391 0.630142 12.1696 0.527144C11.9001 0.424146 11.6119 0.379035 11.3238 0.39474C11.0342 0.409613 10.7511 0.48619 10.4935 0.619348C10.2358 0.752506 10.0097 0.939168 9.83005 1.16684C9.54234 1.53015 9.38579 1.97999 9.38579 2.44343C9.38579 2.90686 9.54234 3.35671 9.83005 3.72002C10.0176 3.9557 10.2546 4.14728 10.5244 4.2812C10.7941 4.41512 11.09 4.4881 11.3911 4.49497C11.6612 4.49702 11.92 4.6037 12.113 4.79257L12.4225 5.10208C12.4853 5.16501 12.5206 5.25029 12.5206 5.33921C12.5206 5.42812 12.4853 5.5134 12.4225 5.57634L8.99414 9.0047L12.9196 12.9304C12.9915 13.0019 13.0886 13.0422 13.19 13.0427C13.2913 13.0431 13.3888 13.0037 13.4613 12.9328L13.7505 12.6435C13.9483 12.4415 14.06 12.1708 14.0624 11.8881C14.0735 11.3663 14.2885 10.8695 14.6614 10.5044L14.6648 10.501C14.7204 10.4447 14.7792 10.3916 14.8409 10.342C15.1955 10.0612 15.6345 9.90849 16.0868 9.90849C16.5391 9.90849 16.9781 10.0612 17.3327 10.342C17.5537 10.5185 17.735 10.7395 17.865 10.9907C17.9949 11.2419 18.0704 11.5177 18.0867 11.8C18.1021 12.0805 18.0584 12.3612 17.9585 12.6238C17.8586 12.8864 17.7047 13.1251 17.5067 13.3244L17.4941 13.3366L17.4905 13.3402C17.487 13.3437 17.4834 13.3473 17.4796 13.3516C17.1185 13.7123 16.6328 13.9208 16.1225 13.9342C15.8307 13.9387 15.5518 14.0552 15.3435 14.2596L15.0695 14.5334L15.0676 14.5353C14.9966 14.6078 14.9571 14.7053 14.9575 14.8067C14.9579 14.9081 14.9982 15.0053 15.0697 15.0772L18.9966 19.0041L27.9992 9.99893L24.0721 6.07488Z" fill="#612FFF"/>
<defs>
<linearGradient id="paint0_linear_8388_59372" x1="0" y1="8.99854" x2="19.0046" y2="28.0019" gradientUnits="userSpaceOnUse">
<stop stop-color="#FF4F42"/>
<stop offset="1" stop-color="#FF8E3C"/>
</linearGradient>
</defs>
</svg>
