<svg width="32" height="28" viewBox="0 0 32 28" fill="none" xmlns="http://www.w3.org/2000/svg">
<path fill-rule="evenodd" clip-rule="evenodd" d="M15.1633 1.03475C14.431 0.692845 13.569 0.692845 12.8367 1.03475L0.718976 6.69208C-0.239658 7.13964 -0.239659 8.417 0.718976 8.86456L5.05566 10.8892L0.718976 12.9139C-0.239658 13.3614 -0.239659 14.6388 0.718976 15.0863L12.8367 20.7437C13.569 21.0856 14.431 21.0856 15.1633 20.7437L27.281 15.0863C28.2397 14.6388 28.2397 13.3614 27.281 12.9139L22.9443 10.8892L27.281 8.86456C28.2397 8.417 28.2397 7.13964 27.281 6.69208L15.1633 1.03475Z" fill="white"/>
<path d="M12.8367 13.4781C13.569 13.1362 14.431 13.1362 15.1633 13.4781L27.281 19.1354C28.2397 19.583 28.2397 20.8604 27.281 21.3079L15.1633 26.9653C14.431 27.3072 13.569 27.3072 12.8367 26.9652L0.718976 21.3079C-0.239659 20.8604 -0.239658 19.583 0.718976 19.1354L12.8367 13.4781Z" fill="url(#paint0_linear_8388_59758)"/>
<g style="mix-blend-mode:multiply">
<path d="M12.8367 7.25643C13.569 6.91452 14.431 6.91453 15.1633 7.25643L27.281 12.9138C28.2397 13.3613 28.2397 14.6387 27.281 15.0862L15.1633 20.7436C14.431 21.0855 13.569 21.0855 12.8367 20.7436L0.718976 15.0862C-0.239659 14.6387 -0.239658 13.3613 0.718976 12.9138L12.8367 7.25643Z" fill="url(#paint1_linear_8388_59758)"/>
</g>
<g style="mix-blend-mode:multiply">
<path d="M12.8367 1.03475C13.569 0.692845 14.431 0.692845 15.1633 1.03475L27.281 6.69208C28.2397 7.13964 28.2397 8.417 27.281 8.86456L15.1633 14.5219C14.431 14.8638 13.569 14.8638 12.8367 14.5219L0.718976 8.86456C-0.239659 8.417 -0.239658 7.13964 0.718976 6.69208L12.8367 1.03475Z" fill="url(#paint2_linear_8388_59758)"/>
</g>
<circle cx="25.1483" cy="7.91853" r="6.84163" fill="#612FFF"/>
<path fill-rule="evenodd" clip-rule="evenodd" d="M25.8535 8.61594L24.9917 8.49799C24.3603 8.40952 23.8793 8.20309 23.5587 7.8787C23.228 7.54448 23.0676 7.07265 23.0676 6.47302C23.0676 5.43105 23.719 4.61516 24.8464 4.35467V4.26129C24.8464 3.94673 24.8564 3.82877 24.9366 3.67641C25.0368 3.48472 25.2522 3.35693 25.5278 3.35693C25.8034 3.35693 26.0189 3.48472 26.1191 3.67641C26.1992 3.82877 26.2093 3.94673 26.2093 4.26129V4.29078C26.5851 4.3301 26.9057 4.41365 27.2064 4.52669C27.6473 4.69872 27.9379 4.99853 27.9379 5.37207C27.9379 5.53918 27.8628 5.74561 27.7275 5.90288C27.6122 6.0405 27.4369 6.1388 27.2164 6.1388C27.016 6.1388 26.7855 6.05033 26.5951 5.97169C26.2894 5.84391 25.9437 5.7751 25.623 5.7751C25.0117 5.7751 24.7612 6.10931 24.7612 6.36489C24.7612 6.50251 24.7913 6.6303 24.9015 6.73843C24.9917 6.8269 25.142 6.91045 25.3925 6.94486L26.2544 7.06282C26.8957 7.15129 27.3567 7.34788 27.6573 7.64278C28.0381 8.00649 28.1885 8.52747 28.1885 9.17625C28.1885 10.346 27.3417 11.0833 26.2093 11.3044V11.5748C26.2093 11.8893 26.1992 12.0073 26.1191 12.1596C26.0189 12.3513 25.8034 12.4791 25.5278 12.4791C25.2522 12.4791 25.0368 12.3513 24.9366 12.1596C24.8564 12.0073 24.8464 11.8893 24.8464 11.5748V11.3585C24.4706 11.329 24.1198 11.27 23.7992 11.1422C23.2179 10.9161 22.8672 10.6507 22.8672 10.1396C22.8672 9.95281 22.9574 9.72673 23.1077 9.57928C23.248 9.44166 23.4083 9.39251 23.5887 9.39251C23.7741 9.39251 23.9244 9.4564 24.2702 9.59894C24.6209 9.74639 25.0067 9.85452 25.4426 9.85452C26.1341 9.85452 26.4648 9.6186 26.4648 9.21557C26.4648 9.04846 26.4247 8.91084 26.3245 8.80271C26.2343 8.71424 26.084 8.64543 25.8535 8.61594Z" fill="white"/>
<defs>
<linearGradient id="paint0_linear_8388_59758" x1="0" y1="13.2217" x2="11.2" y2="35.6217" gradientUnits="userSpaceOnUse">
<stop stop-color="#D200A3"/>
<stop offset="1" stop-color="#F80F6B"/>
</linearGradient>
<linearGradient id="paint1_linear_8388_59758" x1="0" y1="7" x2="11.2" y2="29.4" gradientUnits="userSpaceOnUse">
<stop stop-color="#D200A3"/>
<stop offset="1" stop-color="#F80F6B"/>
</linearGradient>
<linearGradient id="paint2_linear_8388_59758" x1="0" y1="0.77832" x2="11.2" y2="23.1783" gradientUnits="userSpaceOnUse">
<stop stop-color="#D200A3"/>
<stop offset="1" stop-color="#F80F6B"/>
</linearGradient>
</defs>
</svg>
