<svg width="31" height="28" viewBox="0 0 31 28" fill="none" xmlns="http://www.w3.org/2000/svg">
<path d="M1.58008 7.02834C1.58008 5.43768 2.86956 4.14819 4.46022 4.14819H21.7799C23.3705 4.14819 24.66 5.43768 24.66 7.02834V20.4399H1.58008V7.02834Z" fill="url(#paint0_linear_8388_59789)"/>
<path fill-rule="evenodd" clip-rule="evenodd" d="M13.8706 12.7457L12.8122 12.6008C12.0369 12.4922 11.4461 12.2386 11.0523 11.8403C10.6462 11.4298 10.4493 10.8504 10.4493 10.114C10.4493 8.83432 11.2492 7.83234 12.6338 7.51243V7.39774C12.6338 7.01143 12.6461 6.86657 12.7445 6.67945C12.8676 6.44405 13.1322 6.28711 13.4706 6.28711C13.8091 6.28711 14.0737 6.44405 14.1967 6.67945C14.2952 6.86657 14.3075 7.01143 14.3075 7.39774V7.43396C14.769 7.48225 15.1628 7.58486 15.5321 7.72369C16.0736 7.93495 16.4305 8.30315 16.4305 8.76189C16.4305 8.96711 16.3382 9.22063 16.172 9.41378C16.0305 9.58279 15.8151 9.70351 15.5444 9.70351C15.2982 9.70351 15.0152 9.59486 14.7813 9.49828C14.406 9.34135 13.9814 9.25684 13.5876 9.25684C12.8368 9.25684 12.5291 9.66729 12.5291 9.98117C12.5291 10.1502 12.5661 10.3071 12.7014 10.4399C12.8122 10.5486 12.9968 10.6512 13.3045 10.6934L14.3629 10.8383C15.1505 10.9469 15.7167 11.1884 16.0859 11.5505C16.5535 11.9972 16.7381 12.637 16.7381 13.4338C16.7381 14.8704 15.6982 15.7758 14.3075 16.0474V16.3794C14.3075 16.7657 14.2952 16.9105 14.1967 17.0977C14.0737 17.3331 13.8091 17.49 13.4706 17.49C13.1322 17.49 12.8676 17.3331 12.7445 17.0977C12.6461 16.9105 12.6338 16.7657 12.6338 16.3794V16.1138C12.1722 16.0776 11.7415 16.0051 11.3477 15.8482C10.6339 15.5705 10.2031 15.2446 10.2031 14.6168C10.2031 14.3875 10.3139 14.1098 10.4985 13.9287C10.6708 13.7597 10.8677 13.6994 11.0892 13.6994C11.3169 13.6994 11.5015 13.7778 11.9261 13.9529C12.3569 14.134 12.8307 14.2668 13.366 14.2668C14.2152 14.2668 14.6213 13.977 14.6213 13.4821C14.6213 13.2768 14.5721 13.1078 14.449 12.975C14.3383 12.8664 14.1537 12.7819 13.8706 12.7457Z" fill="white"/>
<rect x="0.222656" y="18.4036" width="25.7952" height="2.03647" rx="1.01823" fill="url(#paint1_linear_8388_59789)"/>
<path fill-rule="evenodd" clip-rule="evenodd" d="M18.1503 10.986C17.5589 10.7432 16.968 11.3342 17.2108 11.9256L21.5941 22.6032C21.7894 23.0788 22.4058 23.2024 22.7694 22.8389L24.5888 21.0194L27.6801 24.1107C27.9613 24.3919 28.4172 24.3919 28.6984 24.1107L30.3371 22.472C30.6183 22.1908 30.6183 21.7349 30.3371 21.4537L27.2458 18.3624L29.0637 16.5446C29.4272 16.181 29.3036 15.5646 28.828 15.3693L18.1503 10.986Z" fill="#612FFF"/>
<defs>
<linearGradient id="paint0_linear_8388_59789" x1="4.74095" y1="6.38831" x2="17.9925" y2="25.1494" gradientUnits="userSpaceOnUse">
<stop stop-color="#612FFF"/>
<stop offset="1" stop-color="#D200A3"/>
</linearGradient>
<linearGradient id="paint1_linear_8388_59789" x1="3.75539" y1="18.6836" x2="4.03136" y2="22.1769" gradientUnits="userSpaceOnUse">
<stop stop-color="#612FFF"/>
<stop offset="1" stop-color="#D200A3"/>
</linearGradient>
</defs>
</svg>
