<svg width="28" height="28" viewBox="0 0 28 28" fill="none" xmlns="http://www.w3.org/2000/svg">
<rect x="9.83594" y="4.36011" width="18.1633" height="23.4609" rx="1.35144" fill="url(#paint0_linear_8388_59288)"/>
<path d="M17.3594 19.0415H23.7922C24.4192 19.0415 24.9274 19.5498 24.9274 20.1767V20.1767C24.9274 20.8037 24.4192 21.3119 23.7922 21.3119H17.3594V19.0415Z" fill="white"/>
<path d="M17.3594 14.5012H23.7922C24.4192 14.5012 24.9274 15.0095 24.9274 15.6364V15.6364C24.9274 16.2634 24.4192 16.7716 23.7922 16.7716H17.3594V14.5012Z" fill="white"/>
<path d="M17.3594 9.96069H23.7922C24.4192 9.96069 24.9274 10.4689 24.9274 11.0959V11.0959C24.9274 11.7229 24.4192 12.2311 23.7922 12.2311H17.3594V9.96069Z" fill="white"/>
<path d="M17.4063 22.2726L17.4063 3.18833C17.4063 1.99238 16.4789 1 15.3075 1L2.09853 0.999999C0.951516 0.999999 -0.000260054 1.96694 -0.000260107 3.18833L-0.000260941 22.2726C-0.000260994 23.4686 0.92711 24.4609 2.09853 24.4609L15.3075 24.4609C16.4789 24.4355 17.4063 23.4686 17.4063 22.2726Z" fill="#612FFF"/>
<path d="M5.95976 16.0231L3.48972 13.9377C3.18147 13.6891 3.02734 13.3347 3.02734 12.8743C3.02734 12.4416 3.1693 12.1009 3.45321 11.8523L5.57039 9.89119C6.00032 9.5137 6.38968 9.32495 6.73849 9.32495C6.90884 9.32495 7.08324 9.43083 7.2617 9.6426C7.44016 9.85436 7.52939 10.0937 7.52939 10.3608C7.52939 10.4804 7.501 10.5955 7.44421 10.706C7.39554 10.8165 7.31848 10.9316 7.21303 11.0513C7.10757 11.171 6.95751 11.3137 6.76282 11.4794L5.31487 12.8329L6.79933 14.1173C7.1238 14.3751 7.33065 14.5868 7.41988 14.7526C7.50911 14.9183 7.55372 15.107 7.55372 15.3188C7.55372 15.5858 7.46449 15.8252 7.28603 16.037C7.10757 16.2487 6.92912 16.3546 6.75066 16.3546C6.49919 16.3546 6.23556 16.2441 5.95976 16.0231Z" fill="white"/>
<path d="M10.9589 16.0231C10.6831 16.2441 10.4195 16.3546 10.168 16.3546C9.98958 16.3546 9.81112 16.2487 9.63266 16.037C9.4542 15.8252 9.36497 15.5858 9.36497 15.3188C9.36497 15.107 9.40959 14.9183 9.49882 14.7526C9.58805 14.5868 9.7949 14.3751 10.1194 14.1173L11.6038 12.8329L10.1559 11.4794C9.87196 11.2308 9.67322 11.0283 9.55965 10.8718C9.44609 10.706 9.38931 10.5357 9.38931 10.3608C9.38931 10.0937 9.47854 9.85436 9.65699 9.6426C9.83545 9.43083 10.0099 9.32495 10.1802 9.32495C10.529 9.32495 10.9184 9.5137 11.3483 9.89119L13.4655 11.8523C13.7494 12.1009 13.8913 12.4416 13.8913 12.8743C13.8913 13.3347 13.7372 13.6891 13.429 13.9377L10.9589 16.0231Z" fill="white"/>
<defs>
<linearGradient id="paint0_linear_8388_59288" x1="12.3235" y1="7.58599" x2="31.9227" y2="22.75" gradientUnits="userSpaceOnUse">
<stop stop-color="#612FFF"/>
<stop offset="1" stop-color="#D200A3"/>
</linearGradient>
</defs>
</svg>
