<svg width="28" height="28" viewBox="0 0 28 28" fill="none" xmlns="http://www.w3.org/2000/svg">
<ellipse cx="21.3887" cy="9.72217" rx="3.5" ry="3.5" fill="white"/>
<path fill-rule="evenodd" clip-rule="evenodd" d="M13.5624 22.5553C13.5472 22.5554 13.532 22.5554 13.5167 22.5554C13.5015 22.5554 13.4862 22.5554 13.471 22.5553H4.68015C4.67566 22.5553 4.67116 22.5553 4.66667 22.5553C2.08934 22.5553 0 20.466 0 17.8886C0 15.3401 2.04295 13.2687 4.58054 13.2227C4.7838 8.46296 8.7069 4.6665 13.5167 4.6665C18.4566 4.6665 22.4612 8.67107 22.4612 13.6109C22.4612 15.1604 22.0672 16.6179 21.3739 17.8886H21.7771V22.5553H13.5624Z" fill="url(#paint0_linear_8388_59635)"/>
<circle cx="21.7769" cy="16.0318" r="6.22222" fill="url(#paint1_linear_8388_59635)"/>
<path d="M27.3281 10.08C27.3281 13.2309 24.7738 15.7851 21.623 15.7851C18.4722 15.7851 15.918 13.2309 15.918 10.08C15.918 6.92924 18.4722 4.375 21.623 4.375C24.7738 4.375 27.3281 6.92924 27.3281 10.08Z" fill="#612FFF"/>
<path fill-rule="evenodd" clip-rule="evenodd" d="M24.5862 7.43401C24.992 7.75864 25.0578 8.35076 24.7332 8.75655L21.7222 12.5203C21.5529 12.7319 21.3006 12.8603 21.0299 12.8725C20.7592 12.8847 20.4963 12.7796 20.3087 12.5841L18.8032 11.0159C18.4433 10.641 18.4554 10.0454 18.8303 9.68549C19.2052 9.32561 19.8008 9.33776 20.1607 9.71264L20.9231 10.5067L23.2637 7.58096C23.5883 7.17517 24.1805 7.10937 24.5862 7.43401Z" fill="white"/>
<defs>
<linearGradient id="paint0_linear_8388_59635" x1="0" y1="4.6665" x2="17.4353" y2="26.5582" gradientUnits="userSpaceOnUse">
<stop stop-color="#FF4F42"/>
<stop offset="1" stop-color="#FF8E3C"/>
</linearGradient>
<linearGradient id="paint1_linear_8388_59635" x1="15.5547" y1="9.80957" x2="27.9991" y2="22.254" gradientUnits="userSpaceOnUse">
<stop stop-color="#FF4F42"/>
<stop offset="1" stop-color="#FF8E3C"/>
</linearGradient>
</defs>
</svg>
