<svg width="28" height="28" viewBox="0 0 28 28" fill="none" xmlns="http://www.w3.org/2000/svg">
<path d="M25.831 22.7357H23.2665L23.3005 24.8292C23.3019 24.915 23.2802 24.9996 23.2377 25.0741C23.1951 25.1486 23.1332 25.2102 23.0586 25.2525C22.984 25.2949 22.8993 25.3163 22.8135 25.3146C22.7278 25.3128 22.644 25.288 22.5711 25.2428L18.5328 22.7357H10.1113C9.53612 22.7357 8.98448 22.5072 8.57776 22.1005C8.17105 21.6937 7.94255 21.1421 7.94255 20.5669V11.2654C7.94255 10.6902 8.17105 10.1386 8.57776 9.73189C8.98448 9.32517 9.53612 9.09668 10.1113 9.09668H25.831C26.1158 9.09665 26.3979 9.15272 26.661 9.2617C26.9242 9.37068 27.1633 9.53042 27.3647 9.73181C27.5661 9.9332 27.7259 10.1723 27.8349 10.4354C27.9439 10.6986 28 10.9806 28 11.2654V20.5669C28 20.8517 27.9439 21.1338 27.8349 21.3969C27.7259 21.6601 27.5661 21.8991 27.3647 22.1005C27.1633 22.3019 26.9242 22.4617 26.661 22.5706C26.3979 22.6796 26.1158 22.7357 25.831 22.7357Z" fill="url(#paint0_linear_8388_59377)"/>
<circle cx="13.7458" cy="15.7631" r="1.46456" fill="white"/>
<circle cx="17.9294" cy="15.7631" r="1.46456" fill="white"/>
<circle cx="22.1149" cy="15.7631" r="1.46456" fill="white"/>
<path d="M1.64745 13.3276H3.59444L3.56864 14.9129C3.56755 14.9778 3.58403 15.0419 3.61635 15.0983C3.64866 15.1547 3.69562 15.2014 3.75229 15.2334C3.80895 15.2655 3.87323 15.2817 3.93835 15.2804C4.00347 15.2791 4.06705 15.2603 4.12238 15.226L7.1883 13.3276H13.582C14.0187 13.3276 14.4375 13.1546 14.7463 12.8466C15.055 12.5386 15.2285 12.1209 15.2285 11.6854V4.6422C15.2285 4.20666 15.055 3.78896 14.7463 3.48099C14.4375 3.17302 14.0187 3 13.582 3H1.64745C1.43121 2.99998 1.21708 3.04244 1.01729 3.12496C0.817508 3.20747 0.635976 3.32843 0.483064 3.48093C0.330151 3.63342 0.208858 3.81447 0.126101 4.01372C0.0433449 4.21297 0.000748891 4.42653 0.000748892 4.6422V11.6854C0.000748891 11.9011 0.0433449 12.1146 0.126101 12.3139C0.208858 12.5131 0.330151 12.6942 0.483064 12.8467C0.635976 12.9992 0.817508 13.1201 1.01729 13.2027C1.21708 13.2852 1.43121 13.3276 1.64745 13.3276Z" fill="#612FFF"/>
<defs>
<linearGradient id="paint0_linear_8388_59377" x1="28" y1="9.09668" x2="12.1414" y2="28.7097" gradientUnits="userSpaceOnUse">
<stop stop-color="#FF4F42"/>
<stop offset="1" stop-color="#FF8E3C"/>
</linearGradient>
</defs>
</svg>
