<svg width="29" height="28" viewBox="0 0 29 28" fill="none" xmlns="http://www.w3.org/2000/svg">
<path fill-rule="evenodd" clip-rule="evenodd" d="M10.1111 14.0001C11.8293 14.0001 13.2222 12.6072 13.2222 10.8889C13.2222 9.17072 11.8293 7.77783 10.1111 7.77783C8.39289 7.77783 7 9.17072 7 10.8889C7 12.6072 8.39289 14.0001 10.1111 14.0001ZM17.8898 21.778C19.608 21.778 21.0009 20.3852 21.0009 18.6669C21.0009 16.9487 19.608 15.5558 17.8898 15.5558C16.1715 15.5558 14.7786 16.9487 14.7786 18.6669C14.7786 20.3852 16.1715 21.778 17.8898 21.778Z" fill="white"/>
<path fill-rule="evenodd" clip-rule="evenodd" d="M25.584 3.27516C26.3524 3.65937 26.6638 4.59375 26.2796 5.36216L19.2796 19.3622C19.056 19.8094 18.631 20.1219 18.1375 20.202C17.6439 20.2821 17.1419 20.12 16.7884 19.7664L10.4608 13.4389L4.4663 24.0958C4.04511 24.8446 3.09667 25.1101 2.34789 24.6889C1.59911 24.2678 1.33355 23.3193 1.75473 22.5705L8.75473 10.1261C8.99333 9.70191 9.41669 9.41386 9.89884 9.34763C10.381 9.2814 10.8663 9.44464 11.2105 9.78877L17.4622 16.0405L23.497 3.97083C23.8812 3.20242 24.8156 2.89096 25.584 3.27516Z" fill="url(#paint0_linear_8388_59791)"/>
<path d="M28.0015 4.66678C28.0015 6.38499 26.6086 7.77789 24.8904 7.77789C23.1722 7.77789 21.7793 6.38499 21.7793 4.66678C21.7793 2.94856 23.1722 1.55566 24.8904 1.55566C26.6086 1.55566 28.0015 2.94856 28.0015 4.66678Z" fill="#612FFF"/>
<ellipse cx="3.11111" cy="23.3335" rx="3.11111" ry="3.11111" fill="#612FFF"/>
<path d="M13.2222 10.8887C13.2222 12.6069 11.8293 13.9998 10.1111 13.9998C8.39289 13.9998 7 12.6069 7 10.8887C7 9.17048 8.39289 7.77759 10.1111 7.77759C11.8293 7.77759 13.2222 9.17048 13.2222 10.8887Z" fill="#612FFF"/>
<ellipse cx="17.8904" cy="18.6668" rx="3.11111" ry="3.11111" fill="#612FFF"/>
<defs>
<linearGradient id="paint0_linear_8388_59791" x1="4.96338" y1="6.10513" x2="23.5944" y2="27.3842" gradientUnits="userSpaceOnUse">
<stop stop-color="#612FFF"/>
<stop offset="1" stop-color="#D200A3"/>
</linearGradient>
</defs>
</svg>
