<svg width="28" height="28" viewBox="0 0 28 28" fill="none" xmlns="http://www.w3.org/2000/svg">
<path fill-rule="evenodd" clip-rule="evenodd" d="M5.29297 6.07886L7.22125 24.8724C7.35753 27.2075 8.00141 27.9999 10.1443 27.9999H18.5851C20.7281 27.9999 21.372 27.2075 21.5082 24.8724L23.4365 6.07886H5.29297Z" fill="url(#paint0_linear_8388_59369)"/>
<path fill-rule="evenodd" clip-rule="evenodd" d="M5.82873 2.23034L5.22665 4.75927H23.4705L22.8691 2.23034C22.8557 2.17386 22.842 2.11333 22.8276 2.04968C22.6499 1.26309 22.3646 0 21.0534 0H7.6445C6.33192 0 6.04676 1.26563 5.86956 2.05205C5.85542 2.11483 5.84196 2.17456 5.82873 2.23034ZM24.1247 4.75988H4.49878C4.3666 4.76039 4.23995 4.83652 4.14648 4.97161C4.05302 5.10671 4.00036 5.28979 4 5.48084V7.21175C4.00036 7.40281 4.05302 7.58589 4.14648 7.72098C4.23995 7.85608 4.3666 7.9322 4.49878 7.93272H24.1247C24.2569 7.9322 24.3836 7.85608 24.477 7.72098C24.5705 7.58589 24.6231 7.40281 24.6235 7.21175V5.48084C24.6231 5.28979 24.5705 5.10671 24.477 4.97161C24.3836 4.83652 24.2569 4.76039 24.1247 4.75988Z" fill="#612FFF"/>
<path d="M19.468 16.6571C19.468 19.5046 17.1596 21.813 14.3121 21.813C11.4646 21.813 9.15625 19.5046 9.15625 16.6571C9.15625 13.8096 11.4646 11.5012 14.3121 11.5012C17.1596 11.5012 19.468 13.8096 19.468 16.6571Z" fill="white"/>
<defs>
<linearGradient id="paint0_linear_8388_59369" x1="5.29297" y1="6.07886" x2="26.8277" y2="23.9027" gradientUnits="userSpaceOnUse">
<stop stop-color="#FF4F42"/>
<stop offset="1" stop-color="#FF8E3C"/>
</linearGradient>
</defs>
</svg>
